<?xml version="1.0" encoding="utf-8"?>
<!-- Generator: Adobe Illustrator 15.0.2, SVG Export Plug-In . SVG Version: 6.00 Build 0)  -->
<!DOCTYPE svg PUBLIC "-//W3C//DTD SVG 1.1//EN" "http://www.w3.org/Graphics/SVG/1.1/DTD/svg11.dtd">
<svg version="1.1" id="Calque_1" xmlns="http://www.w3.org/2000/svg" xmlns:xlink="http://www.w3.org/1999/xlink" x="0px" y="0px"
	 width="800px" height="250px" viewBox="0 0 800 250" enable-background="new 0 0 800 250" xml:space="preserve">
<polygon fill="#FFFFFF" stroke="#000000" stroke-miterlimit="10" points="216.5,233.5 18.5,233.5 18.5,17.5 167,17.5 191.75,35.5 
	216.5,53.5 "/>
<rect x="298.5" y="17.5" fill="#333333" stroke="#000000" stroke-miterlimit="10" width="216" height="216"/>
<text transform="matrix(1 0 0 1 28 89)"><tspan x="0" y="0" fill="#009245" font-family="Courier" font-size="7">/*</tspan><tspan x="0" y="8.4" fill="#009245" font-family="Courier" font-size="7">  Ce programme en JavaScript affiche </tspan><tspan x="0" y="16.8" fill="#009245" font-family="Courier" font-size="7">  100 fois un message dans la console</tspan><tspan x="0" y="25.2" fill="#009245" font-family="Courier" font-size="7">*/</tspan><tspan x="0" y="42" fill="#0071BC" font-family="Courier" font-size="7">for</tspan><tspan x="12.602" y="42" font-family="Courier" font-size="7">(</tspan><tspan x="16.803" y="42" fill="#0071BC" font-family="Courier" font-size="7">var</tspan><tspan x="29.405" y="42" font-family="Courier" font-size="7"> i = </tspan><tspan x="50.408" y="42" fill="#FF0000" font-family="Courier" font-size="7">0</tspan><tspan x="54.609" y="42" font-family="Courier" font-size="7">; i &lt; </tspan><tspan x="79.813" y="42" fill="#FF0000" font-family="Courier" font-size="7">100</tspan><tspan x="92.415" y="42" font-family="Courier" font-size="7">; i++){</tspan><tspan x="0" y="50.4" font-family="Courier" font-size="7">  console.log(&apos;</tspan><tspan x="63.01" y="50.4" fill="#666666" font-family="Courier" font-size="7">Bonjour </tspan><tspan x="96.616" y="50.4" font-family="Courier" font-size="7">&apos; + i + &apos;</tspan><tspan x="134.422" y="50.4" fill="#666666" font-family="Courier" font-size="7"> fois !</tspan><tspan x="163.827" y="50.4" font-family="Courier" font-size="7">&apos;);</tspan><tspan x="0" y="58.8" font-family="Courier" font-size="7">}</tspan></text>
<g>
	<g>
		<path fill="#FFFFFF" d="M348.584,76.376c0-0.481-0.293-0.962-0.67-1.15l-10.931-6.329c-0.188-0.094-0.387-0.188-0.575-0.188
			h-0.095c-0.188,0-0.387,0.094-0.575,0.188l-11.044,6.329c-0.388,0.188-0.669,0.669-0.669,1.15v16.976
			c0,0.189,0.094,0.482,0.291,0.576c0.199,0.094,0.481,0.094,0.67,0l6.527-3.745c0.387-0.292,0.67-0.669,0.67-1.15v-7.96
			c0-0.481,0.292-0.868,0.669-1.15l2.782-1.632c0.188-0.095,0.481-0.189,0.669-0.189c0.189,0,0.481,0.094,0.67,0.189l2.782,1.632
			c0.387,0.189,0.67,0.669,0.67,1.15v7.96c0,0.481,0.293,0.868,0.67,1.15l6.526,3.745c0.188,0.094,0.481,0.094,0.669,0
			c0.189-0.094,0.293-0.292,0.293-0.576V76.376z"/>
		<path fill="#FFFFFF" d="M407.003,53.07c-0.189-0.094-0.481-0.094-0.67,0c-0.188,0.095-0.293,0.293-0.293,0.576v16.788
			c0,0.188-0.094,0.292-0.188,0.387c-0.094,0.094-0.292,0.094-0.481,0l-2.781-1.538c-0.388-0.188-0.962-0.188-1.34,0l-10.931,6.328
			c-0.387,0.189-0.67,0.67-0.67,1.151v12.667c0,0.481,0.293,0.868,0.67,1.15l10.931,6.328c0.388,0.189,0.962,0.189,1.34,0
			l10.931-6.328c0.387-0.189,0.669-0.669,0.669-1.15V57.862c0-0.481-0.291-0.963-0.669-1.151L407.003,53.07z M405.946,85.204
			c0,0.094-0.095,0.189-0.188,0.292l-3.744,2.207c-0.095,0.095-0.189,0.095-0.293,0l-3.744-2.207
			c-0.095-0.095-0.188-0.189-0.188-0.292v-4.32c0-0.094,0.094-0.188,0.188-0.292l3.744-2.207c0.094-0.094,0.189-0.094,0.293,0
			l3.744,2.207c0.094,0.094,0.188,0.188,0.188,0.292V85.204z"/>
		<path fill="#FFFFFF" d="M446.134,80.696c0.386-0.189,0.669-0.67,0.669-1.151V76.48c0-0.481-0.292-0.869-0.669-1.15l-10.837-6.234
			c-0.387-0.189-0.962-0.189-1.34,0l-10.931,6.328c-0.387,0.188-0.669,0.67-0.669,1.151V89.24c0,0.481,0.291,0.962,0.669,1.15
			l10.837,6.234c0.387,0.189,0.868,0.189,1.339,0l6.621-3.64c0.188-0.094,0.387-0.293,0.387-0.576c0-0.188-0.094-0.481-0.292-0.575
			l-11.035-6.328c-0.188-0.095-0.292-0.387-0.292-0.576v-3.951c0-0.189,0.094-0.482,0.292-0.576l3.452-2.019
			c0.188-0.094,0.48-0.094,0.669,0l3.452,2.019c0.189,0.094,0.293,0.387,0.293,0.576v3.065c0,0.188,0.094,0.481,0.292,0.575
			c0.198,0.095,0.48,0.095,0.67,0L446.134,80.696z"/>
		<path fill="#80BD01" d="M368.438,68.992c0.387-0.189,0.962-0.189,1.339,0l10.94,6.328c0.387,0.188,0.67,0.669,0.67,1.15v12.667
			c0,0.481-0.293,0.867-0.67,1.15l-10.931,6.329c-0.387,0.189-0.962,0.189-1.339,0l-10.94-6.329c-0.388-0.188-0.67-0.669-0.67-1.15
			V76.47c0-0.481,0.292-0.868,0.67-1.15L368.438,68.992z"/>
		<path fill="#80BD01" d="M467.43,96.71c-0.387,0-0.764-0.094-1.057-0.292l-3.451-2.018c-0.481-0.293-0.293-0.387-0.095-0.482
			c0.669-0.188,0.868-0.292,1.537-0.669c0.095,0,0.188,0,0.293,0l2.688,1.537c0.095,0.095,0.188,0.095,0.293,0l10.354-5.951
			c0.096-0.094,0.189-0.188,0.189-0.292v-11.78c0-0.094-0.094-0.188-0.189-0.292l-10.354-5.951c-0.095-0.094-0.188-0.094-0.293,0
			l-10.355,5.951c-0.094,0.094-0.189,0.189-0.189,0.292v11.893c0,0.095,0.096,0.189,0.189,0.293l2.782,1.631
			c1.537,0.764,2.49-0.094,2.49-1.057V77.725c0-0.189,0.094-0.292,0.292-0.292h1.339c0.189,0,0.292,0.095,0.292,0.292v11.798
			c0,2.019-1.149,3.264-3.064,3.264c-0.575,0-1.056,0-2.396-0.67l-2.688-1.538c-0.67-0.387-1.056-1.15-1.056-1.915V76.762
			c0-0.764,0.386-1.537,1.056-1.914l10.356-5.952c0.669-0.387,1.537-0.387,2.207,0l10.355,5.952c0.669,0.386,1.056,1.15,1.056,1.914
			v11.893c0,0.764-0.387,1.538-1.056,1.915L468.6,96.521C468.099,96.616,467.816,96.71,467.43,96.71z"/>
		<path fill="#80BD01" d="M470.599,88.562c-4.508,0-5.47-2.112-5.47-3.839c0-0.189,0.094-0.292,0.292-0.292h1.34
			c0.188,0,0.291,0.095,0.291,0.292c0.189,1.34,0.765,2.019,3.547,2.019c2.207,0,3.065-0.481,3.065-1.632
			c0-0.67-0.293-1.15-3.641-1.537c-2.782-0.292-4.603-0.868-4.603-3.169c0-2.113,1.727-3.357,4.696-3.357
			c3.264,0,4.989,1.15,5.179,3.64c0,0.094,0,0.188-0.095,0.188c-0.095,0.095-0.095,0.095-0.188,0.095h-1.34
			c-0.094,0-0.292-0.095-0.292-0.189c-0.292-1.443-1.057-1.915-3.264-1.915c-2.396,0-2.688,0.868-2.688,1.443
			c0,0.764,0.292,0.961,3.547,1.442c3.168,0.387,4.696,1.057,4.696,3.264C475.683,87.222,473.862,88.562,470.599,88.562z"/>
		<path fill="#80BD01" d="M434.429,80.12c0.095,0,0.188,0,0.293,0l2.113,1.245c0.094,0,0.094,0.095,0.094,0.189v2.396
			c0,0.095-0.094,0.189-0.094,0.189l-2.113,1.245c-0.095,0-0.188,0-0.293,0l-2.112-1.245c-0.094,0-0.094-0.094-0.094-0.189v-2.396
			c0-0.094,0.094-0.189,0.094-0.189L434.429,80.12z"/>
		<g>
			<path fill="#80BD01" d="M487,72.065c0,1.057-0.867,2.019-2.019,2.019c-1.057,0-2.018-0.868-2.018-2.019
				c0-1.15,0.961-2.018,2.018-2.018C486.133,70.141,487,71.009,487,72.065z M483.359,72.065c0,0.963,0.765,1.632,1.632,1.632
				c0.962,0,1.632-0.764,1.632-1.632c0-0.961-0.764-1.631-1.632-1.631C484.124,70.434,483.359,71.198,483.359,72.065z
				 M484.312,71.009h0.765c0.292,0,0.764,0,0.764,0.576c0,0.387-0.292,0.481-0.387,0.576c0.292,0,0.292,0.188,0.387,0.48
				c0,0.188,0.095,0.481,0.095,0.575h-0.481c0-0.094-0.095-0.67-0.095-0.67c0-0.094-0.094-0.188-0.188-0.188h-0.387v0.868h-0.481
				L484.312,71.009L484.312,71.009z M484.699,71.962h0.387c0.291,0,0.387-0.188,0.387-0.292c0-0.293-0.189-0.293-0.293-0.293h-0.387
				v0.576h-0.094V71.962z"/>
		</g>
	</g>
</g>
<text transform="matrix(0.7686 0 0 1 331.2842 152)"><tspan x="0" y="0" fill="#FFFFFF" font-family="Courier" font-weight="bold"  font-size="12">Plateforme qui intepréte le</tspan><tspan x="25.204" y="14.4" fill="#FFFFFF" font-family="Courier" font-weight="bold"  font-size="12">JavaScript en entrée</tspan></text>
<polygon fill="#80BD01" points="287.756,125.5 272,139 272,130 225,130 225,121 272,121 272,112 "/>
<text transform="matrix(1 0 0 1 75.5947 35.0005)" font-family="Courier" font-weight="bold"  font-size="12">script.js</text>
<polygon fill="#80BD01" points="584.756,125.5 569,139 569,130 522,130 522,121 569,121 569,112 "/>
<text transform="matrix(1 0 0 1 227.5952 152)" font-family="Courier" font-weight="bold"  font-size="7">node script.js</text>
<text transform="matrix(1.67 0 0 1 564.7617 145)" font-family="Courier" font-size="85">{    }</text>

<text transform="matrix(1 0 0 1 615.5889 116)"><tspan x="0" y="0" font-family="Courier" font-size="6">01010101010110101010010101101001011011</tspan><tspan x="0" y="7.2" font-family="Courier" font-size="6">01010101010110101010010101101001011011</tspan><tspan x="0" y="14.4" font-family="Courier" font-size="6">01010101010110101010010101101001011011</tspan><tspan x="0" y="21.6" font-family="Courier" font-size="6">01010101010110101010010101101001011011</tspan></text>
<text transform="matrix(1 0 0 1 608.3877 53)"><tspan x="0" y="0" font-family="Courier" font-size="12">Les instructions sont</tspan><tspan x="-7.201" y="14.4" font-family="Courier" font-size="12">immédiatement exécutées</tspan></text>
</svg>
