<svg xmlns="http://www.w3.org/2000/svg" version="1.1" width="512" height="512" viewBox="0 0 512 512"> <defs>  <linearGradient id="linearGradient3857">   <stop stop-color="#000000" offset="0"/>   <stop stop-color="#000000" stop-opacity="0" offset="1"/>  </linearGradient>  <linearGradient id="linearGradient3155" y2="567.59" gradientUnits="userSpaceOnUse" x2="263.18" gradientTransform="matrix(0,-500.54451,500.54451,0,254.23836,503.69457)" y1="632.85" x1="263.18">   <stop stop-color="#a81e22" offset="0"/>   <stop stop-color="#d02026" offset="0.3952"/>   <stop stop-color="#e51e26" offset="1"/>  </linearGradient>  <linearGradient id="linearGradient3160" gradientUnits="userSpaceOnUse" gradientTransform="matrix(0,-491.01738,491.01738,0,254.23836,498.82001)">   <stop stop-color="#8a181a" offset="0"/>   <stop stop-color="#d91f26" offset="1"/>  </linearGradient>  <linearGradient id="linearGradient3165" gradientUnits="userSpaceOnUse" gradientTransform="matrix(0,-500.53716,500.53716,0,254.1832,503.69457)">   <stop stop-color="#d91f26" offset="0"/>   <stop stop-color="#bc2025" offset="1"/>  </linearGradient>  <linearGradient id="linearGradient3170" gradientUnits="userSpaceOnUse" gradientTransform="matrix(0,-491.01133,491.01133,0,254.23836,498.81353)">   <stop stop-color="#951a1d" offset="0"/>   <stop stop-color="#de1f26" offset="1"/>  </linearGradient>  <linearGradient id="linearGradient3203" gradientUnits="userSpaceOnUse" gradientTransform="matrix(0,-515.71466,515.71466,0,256.32514,513.19052)">   <stop stop-color="#333132" offset="0"/>   <stop stop-color="#d1d3d4" offset="1"/>  </linearGradient>  <radialGradient id="radialGradient3863" gradientUnits="userSpaceOnUse" cy="476.3" cx="254.25" gradientTransform="matrix(1,0,0,0.21282015,0,374.93376)" r="140.56">   <stop stop-color="#000000" offset="0"/>   <stop stop-color="#000000" stop-opacity="0" offset="1"/>  </radialGradient>  <radialGradient id="radialGradient3871" gradientUnits="userSpaceOnUse" cy="476.3" cx="254.25" gradientTransform="matrix(1,0,0,0.21282015,0,374.93376)" r="140.56">   <stop stop-color="#000000" offset="0"/>   <stop stop-color="#000000" stop-opacity="0" offset="1"/>  </radialGradient> </defs> <path fill="url(#radialGradient3863)" d="m394.81,476.3a140.56,29.914,0,0,1,-281.12,0,140.56,29.914,0,1,1,281.12,0z"/> <path fill="url(#radialGradient3871)" d="m394.81,476.3a140.56,29.914,0,0,1,-281.12,0,140.56,29.914,0,1,1,281.12,0z" transform="matrix(0.7848526,0,0,0.92800013,54.701387,34.293255)"/> <path opacity="0.69999701" d="m256.32,454.93c-81.134,0-90.642-121.46-90.642-209.8,0-95.351,15.377-200.69,90.642-200.69,75.295,0,90.566,106.45,90.566,201.79,0,88.366-9.4048,208.7-90.566,208.7m0-446.65c-133.52,0-226.94,96.793-226.94,242.07,0,129.28,90.768,247.02,226.94,247.02,136.21,0,226.96-117.74,226.96-247.02,0-145.27-93.42-242.07-226.96-242.07" fill="url(#linearGradient3203)"/> <path d="m28.74,248.52c0,128.46,90.207,245.46,225.52,245.46s225.5-116.99,225.5-245.46c0-144.36-92.812-240.52-225.5-240.52-132.72,0-225.52,96.165-225.52,240.52m5.2441,0.0798c0-141.01,90.655-234.96,220.27-234.96,129.59,0,220.26,93.955,220.26,234.96,0,125.47-88.07,239.74-220.26,239.74-132.18,0-220.27-114.27-220.27-239.74" fill="url(#linearGradient3170)"/> <path d="m164.13,243.34c0,87.767,9.468,208.49,90.104,208.49,80.629,0,89.967-119.6,89.967-207.37,0-94.756-15.174-200.54-89.967-200.54-74.8,0-90.104,104.67-90.104,199.43m2.0571,1.2794c0-92.556,14.975-193.38,88.04-193.38,73.055,0,87.91,101.93,87.91,194.49,0,85.747-8.2616,200.54-87.013,200.54-78.755,0-88.937-115.92-88.937-201.65" fill="url(#linearGradient3165)"/> <path d="m33.991,248.59c0,125.47,88.093,239.74,220.27,239.74,132.19,0,220.26-114.27,220.26-239.74,0-141.01-90.662-234.96-220.26-234.96-129.61,0-220.27,93.955-220.27,234.96m130.17-5.2674c0-94.753,15.304-199.43,90.104-199.43,74.793,0,89.967,105.78,89.967,200.54,0,87.777-9.3384,207.37-89.967,207.37-80.636,0-90.104-120.72-90.104-208.49" fill="url(#linearGradient3160)"/> <path d="m33.991,248.59c0,125.47,88.093,239.74,220.27,239.74,132.19,0,220.26-114.27,220.26-239.74,0-141.01-90.662-234.96-220.26-234.96-129.61,0-220.27,93.955-220.27,234.96m130.17-5.2674c0-94.753,15.304-199.43,90.104-199.43,74.793,0,89.967,105.78,89.967,200.54,0,87.777-9.3384,207.37-89.967,207.37-80.636,0-90.104-120.72-90.104-208.49" fill="url(#linearGradient3155)"/></svg>