<?xml version="1.0" encoding="utf-8"?>
<!-- Generator: Adobe Illustrator 15.0.2, SVG Export Plug-In . SVG Version: 6.00 Build 0)  -->
<!DOCTYPE svg PUBLIC "-//W3C//DTD SVG 1.1//EN" "http://www.w3.org/Graphics/SVG/1.1/DTD/svg11.dtd">
<svg version="1.1"
	 id="Calque_1" sodipodi:docname="HTTP.svg" inkscape:version="0.91 r13725" xmlns:dc="http://purl.org/dc/elements/1.1/" xmlns:cc="http://creativecommons.org/ns#" xmlns:rdf="http://www.w3.org/1999/02/22-rdf-syntax-ns#" xmlns:svg="http://www.w3.org/2000/svg" xmlns:sodipodi="http://sodipodi.sourceforge.net/DTD/sodipodi-0.dtd" xmlns:inkscape="http://www.inkscape.org/namespaces/inkscape"
	 xmlns="http://www.w3.org/2000/svg" xmlns:xlink="http://www.w3.org/1999/xlink" x="0px" y="0px" width="452.934px"
	 height="215.553px" viewBox="148.472 19.168 452.934 215.553" enable-background="new 148.472 19.168 452.934 215.553"
	 xml:space="preserve">
<sodipodi:namedview  id="namedview4105" inkscape:window-maximized="1" inkscape:current-layer="Calque_1" inkscape:window-y="-4" inkscape:window-x="-4" inkscape:window-height="975" inkscape:window-width="1280" inkscape:pageshadow="2" inkscape:pageopacity="0" bordercolor="#666666" pagecolor="#ffffff" inkscape:cy="195.89441" guidetolerance="10" inkscape:cx="386.72718" gridtolerance="10" inkscape:zoom="1.016466" objecttolerance="10" borderopacity="1" showgrid="false">
	</sodipodi:namedview>
<rect id="rect3341" x="263.624" y="125.335" fill="none" stroke="#3DA02C" stroke-miterlimit="10" width="119.712" height="95.165"/>
<text transform="matrix(1 0 0 1 192.0476 124.3352)" fill="#FFFFFF" font-family="verdana" font-weight="bold" font-size="12.5">1</text>
<g>
	<g>
		<path fill="#FFFFFF" stroke="#000000" stroke-miterlimit="10" d="M289.136,190.088c0-0.312-0.188-0.622-0.432-0.743l-7.058-4.086
			c-0.122-0.061-0.25-0.122-0.371-0.122h-0.062c-0.121,0-0.249,0.062-0.371,0.122l-7.13,4.086c-0.25,0.121-0.433,0.432-0.433,0.743
			v10.96c0,0.122,0.061,0.311,0.188,0.371c0.128,0.062,0.311,0.062,0.433,0l4.214-2.417c0.249-0.189,0.433-0.433,0.433-0.743v-5.139
			c0-0.311,0.188-0.561,0.432-0.743l1.797-1.054c0.121-0.061,0.311-0.121,0.432-0.121c0.122,0,0.311,0.061,0.433,0.121l1.796,1.054
			c0.25,0.122,0.433,0.433,0.433,0.743v5.139c0,0.311,0.188,0.561,0.433,0.743l4.214,2.417c0.121,0.062,0.31,0.062,0.432,0
			c0.122-0.061,0.188-0.188,0.188-0.371V190.088z"/>
		<path fill="#FFFFFF" stroke="#000000" stroke-miterlimit="10" d="M326.852,175.041c-0.122-0.061-0.311-0.061-0.433,0
			c-0.121,0.062-0.188,0.189-0.188,0.372v10.838c0,0.122-0.061,0.189-0.122,0.25c-0.061,0.061-0.188,0.061-0.31,0l-1.797-0.992
			c-0.25-0.122-0.621-0.122-0.864,0l-7.058,4.085c-0.249,0.122-0.433,0.433-0.433,0.743v8.178c0,0.311,0.189,0.561,0.433,0.743
			l7.058,4.086c0.249,0.121,0.621,0.121,0.864,0l7.058-4.086c0.249-0.122,0.432-0.433,0.432-0.743v-20.38
			c0-0.311-0.188-0.621-0.432-0.743L326.852,175.041z M326.171,195.787c0,0.061-0.062,0.121-0.122,0.188l-2.417,1.425
			c-0.062,0.061-0.122,0.061-0.189,0l-2.417-1.425c-0.061-0.061-0.122-0.122-0.122-0.188v-2.789c0-0.061,0.062-0.122,0.122-0.188
			l2.417-1.426c0.062-0.061,0.122-0.061,0.189,0l2.417,1.426c0.061,0.061,0.122,0.121,0.122,0.188V195.787z"/>
		<path fill="#FFFFFF" stroke="#000000" stroke-miterlimit="10" d="M352.116,192.876c0.25-0.122,0.433-0.433,0.433-0.742v-1.979
			c0-0.311-0.189-0.561-0.433-0.743l-6.996-4.024c-0.25-0.122-0.621-0.122-0.865,0l-7.057,4.086
			c-0.25,0.121-0.433,0.432-0.433,0.742v8.178c0,0.311,0.188,0.621,0.433,0.743l6.996,4.024c0.25,0.122,0.561,0.122,0.864,0
			l4.274-2.35c0.122-0.062,0.25-0.189,0.25-0.372c0-0.121-0.061-0.311-0.188-0.371l-7.124-4.086
			c-0.122-0.061-0.189-0.25-0.189-0.371v-2.552c0-0.121,0.062-0.311,0.189-0.371l2.229-1.304c0.121-0.061,0.311-0.061,0.432,0
			l2.229,1.304c0.122,0.061,0.189,0.25,0.189,0.371v1.979c0,0.121,0.061,0.311,0.188,0.371s0.311,0.061,0.433,0L352.116,192.876z"/>
		<path fill="#80BD01" d="M301.955,185.32c0.249-0.121,0.621-0.121,0.864,0l7.063,4.086c0.249,0.122,0.432,0.433,0.432,0.743v8.178
			c0,0.311-0.188,0.56-0.432,0.742l-7.058,4.086c-0.249,0.122-0.621,0.122-0.864,0l-7.063-4.086
			c-0.25-0.121-0.433-0.432-0.433-0.742v-8.178c0-0.311,0.188-0.561,0.433-0.743L301.955,185.32z"/>
		<path fill="#80BD01" d="M365.865,203.216c-0.25,0-0.493-0.062-0.682-0.189l-2.229-1.303c-0.311-0.188-0.189-0.25-0.062-0.311
			c0.433-0.122,0.561-0.188,0.993-0.433c0.061,0,0.121,0,0.188,0l1.735,0.993c0.061,0.061,0.122,0.061,0.188,0l6.687-3.843
			c0.061-0.061,0.121-0.122,0.121-0.188v-7.605c0-0.061-0.061-0.122-0.121-0.188l-6.687-3.843c-0.061-0.061-0.122-0.061-0.188,0
			l-6.686,3.843c-0.062,0.061-0.122,0.121-0.122,0.188v7.679c0,0.061,0.061,0.121,0.122,0.188l1.796,1.054
			c0.992,0.493,1.607-0.062,1.607-0.683v-7.617c0-0.122,0.062-0.188,0.188-0.188h0.865c0.121,0,0.188,0.061,0.188,0.188v7.617
			c0,1.304-0.743,2.107-1.979,2.107c-0.372,0-0.683,0-1.547-0.433l-1.735-0.992c-0.433-0.25-0.682-0.743-0.682-1.236v-7.685
			c0-0.493,0.249-0.992,0.682-1.236l6.686-3.842c0.433-0.25,0.992-0.25,1.425,0l6.686,3.842c0.433,0.25,0.683,0.743,0.683,1.236
			v7.679c0,0.493-0.25,0.992-0.683,1.235l-6.686,3.843C366.298,203.155,366.115,203.216,365.865,203.216z"/>
		<path fill="#80BD01" d="M367.911,197.954c-2.91,0-3.531-1.363-3.531-2.478c0-0.122,0.061-0.189,0.188-0.189h0.864
			c0.122,0,0.189,0.062,0.189,0.189c0.121,0.864,0.493,1.303,2.289,1.303c1.425,0,1.979-0.311,1.979-1.054
			c0-0.432-0.188-0.742-2.35-0.992c-1.797-0.188-2.972-0.561-2.972-2.046c0-1.364,1.114-2.168,3.032-2.168
			c2.106,0,3.222,0.743,3.343,2.351c0,0.061,0,0.122-0.061,0.122c-0.061,0.061-0.061,0.061-0.122,0.061h-0.864
			c-0.062,0-0.189-0.061-0.189-0.122c-0.188-0.932-0.682-1.235-2.106-1.235c-1.547,0-1.735,0.56-1.735,0.932
			c0,0.493,0.188,0.621,2.289,0.931c2.047,0.25,3.033,0.683,3.033,2.107C371.193,197.09,370.017,197.954,367.911,197.954z"/>
		<path fill="#80BD01" d="M344.559,192.505c0.061,0,0.122,0,0.188,0l1.364,0.804c0.061,0,0.061,0.061,0.061,0.122v1.546
			c0,0.062-0.061,0.122-0.061,0.122l-1.364,0.804c-0.061,0-0.121,0-0.188,0l-1.364-0.804c-0.061,0-0.061-0.061-0.061-0.122v-1.546
			c0-0.062,0.061-0.122,0.061-0.122L344.559,192.505z"/>
		<g>
			<path fill="#80BD01" d="M378.5,187.305c0,0.682-0.561,1.303-1.303,1.303c-0.683,0-1.304-0.56-1.304-1.303
				s0.621-1.303,1.304-1.303C377.939,186.063,378.5,186.623,378.5,187.305z M376.149,187.305c0,0.621,0.493,1.054,1.054,1.054
				c0.621,0,1.054-0.493,1.054-1.054c0-0.621-0.493-1.054-1.054-1.054S376.149,186.744,376.149,187.305z M376.764,186.623h0.493
				c0.188,0,0.493,0,0.493,0.371c0,0.25-0.188,0.311-0.25,0.371c0.189,0,0.189,0.122,0.25,0.311c0,0.122,0.061,0.311,0.061,0.372
				h-0.311c0-0.062-0.061-0.433-0.061-0.433c0-0.061-0.061-0.122-0.122-0.122h-0.249v0.561h-0.311L376.764,186.623L376.764,186.623z
				 M377.014,187.238h0.249c0.189,0,0.25-0.121,0.25-0.188c0-0.188-0.122-0.188-0.188-0.188h-0.25v0.371h-0.061V187.238z"/>
		</g>
	</g>
</g>
<g>
	<g>
		<defs>
			<path id="SVGID_1_" d="M278.87,167.486l-0.752-0.25c0,0,0.096-3.809-1.278-4.076c-0.906-1.051,0.14-44.842,3.431-0.15
				c0,0-1.127,0.566-1.34,1.526C278.717,165.495,278.87,167.486,278.87,167.486L278.87,167.486z"/>
		</defs>
		<defs>
			<rect id="SVGID_2_" x="271.938" y="139.423" width="105.878" height="28.784"/>
		</defs>
		<use xlink:href="#SVGID_1_"  overflow="visible" fill="#686D27"/>
		<clipPath id="SVGID_3_">
			<use xlink:href="#SVGID_1_"  overflow="visible"/>
		</clipPath>
		<clipPath id="SVGID_4_" clip-path="url(#SVGID_3_)">
			<use xlink:href="#SVGID_2_"  overflow="visible"/>
		</clipPath>
		<g clip-path="url(#SVGID_4_)">
			<defs>
				<rect id="SVGID_5_" x="276.52" y="142.942" width="3.799" height="24.601"/>
			</defs>
			<clipPath id="SVGID_6_">
				<use xlink:href="#SVGID_5_"  overflow="visible"/>
			</clipPath>
		</g>
	</g>
	<g>
		<defs>
			<path id="SVGID_7_" d="M279.276,163.806c0,0,6.541-4.309,5.008-13.254c-1.476-6.5-4.96-8.637-5.334-9.452
				c-0.412-0.577-0.827-1.601-0.827-1.601l0.278,18.11C278.401,157.609,277.825,163.139,279.276,163.806L279.276,163.806z"/>
		</defs>
		<use xlink:href="#SVGID_7_"  overflow="visible" fill="#004513"/>
		<clipPath id="SVGID_8_">
			<use xlink:href="#SVGID_7_"  overflow="visible"/>
		</clipPath>
		<g clip-path="url(#SVGID_8_)">
			<defs>
				<rect id="SVGID_9_" x="277.825" y="139.499" width="7.991" height="24.307"/>
			</defs>
			<use xlink:href="#SVGID_9_"  overflow="visible" fill="#004513"/>
			<clipPath id="SVGID_10_">
				<use xlink:href="#SVGID_9_"  overflow="visible"/>
			</clipPath>
		</g>
	</g>
	<g>
		<defs>
			<path id="SVGID_11_" d="M277.735,164.048c0,0-6.136-4.186-5.783-11.571c0.354-7.385,4.687-11.016,5.53-11.675
				c0.546-0.582,0.568-0.806,0.611-1.379c0.382,0.821,0.319,12.27,0.359,13.608C278.61,158.24,278.164,163.063,277.735,164.048
				L277.735,164.048z"/>
		</defs>
		<defs>
			<rect id="SVGID_12_" x="271.938" y="139.423" width="105.878" height="28.784"/>
		</defs>
		<use xlink:href="#SVGID_11_"  overflow="visible" fill="#33995F"/>
		<clipPath id="SVGID_13_">
			<use xlink:href="#SVGID_11_"  overflow="visible"/>
		</clipPath>
		<clipPath id="SVGID_14_" clip-path="url(#SVGID_13_)">
			<use xlink:href="#SVGID_12_"  overflow="visible"/>
		</clipPath>
		<g clip-path="url(#SVGID_14_)">
			<defs>
				<rect id="SVGID_15_" x="271.938" y="139.384" width="6.572" height="24.721"/>
			</defs>
			<clipPath id="SVGID_16_">
				<use xlink:href="#SVGID_15_"  overflow="visible"/>
			</clipPath>
		</g>
	</g>
	<path fill="#CBC7C3" d="M351.869,161.663c0.433,0.347,1.301,0.49,2.066,0.49c0.992,0,1.962-0.185,2.913-1.041
		c0.971-0.878,1.633-2.225,1.633-4.367c0-2.062-0.786-3.735-2.397-4.714c-0.91-0.572-2.087-0.796-3.431-0.796
		c-0.393,0-0.784,0.021-1.013,0.122c-0.062,0.041-0.186,0.204-0.186,0.286c-0.041,0.368-0.041,3.164-0.041,4.816
		c0,1.694,0,4.061,0.041,4.347C351.476,161.051,351.599,161.479,351.869,161.663L351.869,161.663z M347.743,150.316
		c0.353,0,1.687,0.062,2.307,0.062c1.157,0,1.963-0.062,4.133-0.062c1.818,0,3.348,0.49,4.443,1.429
		c1.322,1.143,2.024,2.735,2.024,4.673c0,2.755-1.26,4.347-2.521,5.245c-1.261,0.939-2.894,1.47-5.229,1.47
		c-1.24,0-3.368-0.041-5.146-0.062h-0.024c-0.083-0.163,0.152-0.8,0.298-0.816c0.48-0.054,0.61-0.072,0.834-0.164
		c0.375-0.154,0.463-0.346,0.505-1.019c0.062-1.266,0.041-2.775,0.041-4.49c0-1.224,0.021-3.612-0.021-4.367
		c-0.063-0.632-0.33-0.796-0.868-0.918c-0.269-0.061-0.641-0.122-1.157-0.183C347.322,150.99,347.64,150.439,347.743,150.316
		L347.743,150.316z"/>
	<path fill="#CBC7C3" d="M366.123,151.316c-0.082,0.021-0.186,0.225-0.186,0.327c-0.021,0.734-0.041,2.653-0.041,3.979
		c0,0.041,0.062,0.102,0.104,0.102c0.268,0.021,0.929,0.041,1.487,0.041c0.785,0,1.239-0.102,1.488-0.225
		c0.661-0.326,0.971-1.041,0.971-1.816c0-1.775-1.24-2.449-3.079-2.449C366.743,151.276,366.391,151.276,366.123,151.316
		L366.123,151.316z M370.813,159.479c0-1.795-1.321-2.816-3.739-2.816c-0.104,0-0.869-0.021-1.055,0.021
		c-0.062,0.02-0.123,0.062-0.123,0.103c0,1.285-0.021,3.347,0.041,4.163c0.041,0.347,0.289,0.837,0.6,0.979
		c0.33,0.184,1.074,0.225,1.591,0.225C369.553,162.153,370.813,161.357,370.813,159.479L370.813,159.479z M362.39,150.316
		c0.187,0,0.736,0.062,2.142,0.062c1.323,0,2.396-0.041,3.679-0.041c1.59,0,3.781,0.571,3.781,2.938
		c0,1.164-0.826,2.103-1.901,2.551c-0.062,0.021-0.062,0.062,0,0.083c1.529,0.387,2.873,1.326,2.873,3.123
		c0,1.754-1.096,2.856-2.688,3.551c-0.971,0.429-2.169,0.571-3.389,0.571c-0.93,0-3.422-0.103-4.806-0.082
		c-0.146-0.061,0.132-0.714,0.256-0.816c0.33-0.02,0.585-0.044,0.938-0.146c0.495-0.123,0.554-0.282,0.616-1.018
		c0.041-0.632,0.041-2.897,0.041-4.51c0-2.204,0.021-3.694,0-4.428c-0.021-0.571-0.228-0.755-0.62-0.857
		c-0.31-0.061-0.826-0.122-1.239-0.183C361.969,151.01,362.288,150.398,362.39,150.316L362.39,150.316z"/>
	<path fill="#4C4847" d="M288.464,163.123c-0.035-0.055-0.071-0.217-0.063-0.412c0.006-0.147,0.035-0.242,0.063-0.274
		c0.39-0.063,0.575-0.104,0.794-0.162c0.365-0.091,0.502-0.288,0.524-0.756c0.06-1.1,0.063-3.164,0.042-4.615v-0.042
		c0.002-0.156,0.004-0.369-0.191-0.519c-0.287-0.189-0.644-0.345-1.096-0.48c-0.173-0.051-0.269-0.143-0.264-0.249
		c0.006-0.102,0.114-0.232,0.34-0.276c0.598-0.062,2.167-0.435,2.783-0.719c0.036,0.044,0.093,0.14,0.083,0.293
		c-0.004,0.064-0.01,0.132-0.016,0.202c-0.018,0.205-0.037,0.438-0.037,0.669c0,0.068,0.074,0.133,0.152,0.133
		c0.04,0,0.077-0.016,0.107-0.045c1.173-0.918,2.222-1.247,2.763-1.247c0.888,0,1.579,0.424,2.112,1.295
		c0.031,0.046,0.074,0.07,0.121,0.07c0.045,0,0.087-0.023,0.112-0.06c1.079-0.817,2.148-1.306,2.863-1.306
		c1.692,0,2.702,1.265,2.702,3.383c0,0.608-0.006,1.38-0.012,2.1c-0.005,0.632-0.009,1.224-0.009,1.634
		c0,0.1,0.133,0.376,0.333,0.431c0.247,0.12,0.604,0.182,1.056,0.259l0.018,0.004c0.034,0.12-0.038,0.593-0.106,0.689
		c-0.112,0-0.267-0.009-0.46-0.019c-0.351-0.018-0.833-0.042-1.393-0.042c-1.124,0-1.711,0.021-2.272,0.059
		c-0.042-0.141-0.058-0.593-0.006-0.688c0.327-0.061,0.489-0.102,0.685-0.16c0.358-0.117,0.461-0.279,0.482-0.755
		c0.008-0.337,0.073-3.307-0.042-4.013c-0.106-0.73-0.658-1.585-1.864-1.585c-0.447,0-1.17,0.185-1.86,0.707
		c-0.043,0.042-0.067,0.122-0.067,0.176l0.001,0.014c0.081,0.38,0.081,0.824,0.081,1.496c0,0.382-0.002,0.789-0.005,1.192
		c-0.004,0.819-0.009,1.592,0.005,2.177c0,0.397,0.241,0.493,0.435,0.57c0.105,0.023,0.189,0.043,0.272,0.063
		c0.163,0.039,0.331,0.08,0.58,0.119c0.034,0.079,0.037,0.313-0.01,0.514c-0.026,0.111-0.056,0.16-0.072,0.176
		c-0.625-0.021-1.267-0.04-2.191-0.04c-0.281,0-0.739,0.013-1.143,0.022c-0.328,0.009-0.638,0.018-0.814,0.018
		c-0.026-0.039-0.062-0.169-0.062-0.354c0-0.174,0.032-0.295,0.064-0.333c0.087-0.017,0.169-0.031,0.249-0.045
		c0.217-0.039,0.405-0.072,0.584-0.115c0.306-0.094,0.421-0.264,0.444-0.653c0.06-0.908,0.106-3.524-0.022-4.18
		c-0.219-1.051-0.818-1.583-1.781-1.583c-0.564,0-1.277,0.271-1.859,0.707c-0.098,0.072-0.171,0.253-0.171,0.42
		c0,0.311-0.001,0.682-0.002,1.08c-0.004,1.314-0.009,2.95,0.023,3.658c0.02,0.217,0.096,0.477,0.506,0.572
		c0.09,0.024,0.245,0.051,0.425,0.08c0.104,0.017,0.217,0.036,0.333,0.057c0.042,0.112,0.016,0.554-0.055,0.69
		c-0.18,0-0.4-0.011-0.654-0.022c-0.387-0.017-0.869-0.038-1.417-0.038c-0.646,0-1.096,0.021-1.457,0.038
		C288.884,163.112,288.674,163.123,288.464,163.123L288.464,163.123L288.464,163.123z"/>
	<path fill="#4C4847" d="M308.964,155.491c-0.375,0-0.727,0.098-0.988,0.277c-0.717,0.437-1.083,1.307-1.083,2.584
		c0,2.395,1.2,4.066,2.918,4.066c0.507,0,0.921-0.146,1.264-0.444c0.528-0.431,0.808-1.31,0.808-2.54
		C311.883,157.075,310.71,155.491,308.964,155.491L308.964,155.491L308.964,155.491z M309.295,163.306
		c-3.104,0-4.211-2.274-4.211-4.402c0-1.487,0.609-2.65,1.81-3.455c0.854-0.524,1.873-0.826,2.793-0.826
		c2.37,0,4.024,1.702,4.024,4.139c0,1.656-0.662,2.964-1.912,3.78C311.2,162.91,310.159,163.306,309.295,163.306L309.295,163.306
		L309.295,163.306z"/>
	<path fill="#4C4847" d="M341.115,155.491c-0.377,0-0.729,0.098-0.989,0.277c-0.718,0.437-1.083,1.306-1.083,2.584
		c0,2.395,1.2,4.066,2.919,4.066c0.507,0,0.92-0.146,1.264-0.445c0.527-0.43,0.808-1.309,0.808-2.539
		C344.033,157.076,342.86,155.491,341.115,155.491L341.115,155.491L341.115,155.491z M341.446,163.306
		c-3.105,0-4.212-2.274-4.212-4.402c0-1.487,0.609-2.65,1.811-3.456c0.854-0.524,1.873-0.825,2.793-0.825
		c2.369,0,4.024,1.702,4.024,4.139c0,1.657-0.661,2.964-1.912,3.78C343.35,162.91,342.309,163.306,341.446,163.306L341.446,163.306
		L341.446,163.306z"/>
	<path fill="#4C4847" d="M330.725,155.409c-0.957,0-1.576,0.755-1.576,1.923c0,1.179,0.532,2.556,2.03,2.556
		c0.258,0,0.725-0.114,0.956-0.369c0.348-0.32,0.575-0.979,0.575-1.676C332.711,156.319,331.968,155.409,330.725,155.409
		L330.725,155.409L330.725,155.409z M330.601,163.469c-0.359,0-0.621,0.104-0.777,0.192c-0.757,0.485-1.108,0.97-1.108,1.529
		c0,0.525,0.205,0.941,0.644,1.314c0.532,0.449,1.249,0.668,2.193,0.668c1.855,0,2.688-0.994,2.688-1.982
		c0-0.689-0.346-1.15-1.057-1.41C332.636,163.581,331.721,163.469,330.601,163.469L330.601,163.469L330.601,163.469z
		 M330.725,168.206c-1.115,0-1.918-0.236-2.604-0.764c-0.666-0.514-0.966-1.277-0.966-1.805c0-0.15,0.036-0.543,0.365-0.916
		c0.195-0.222,0.645-0.634,1.684-1.348c0.032-0.013,0.054-0.044,0.054-0.082c0-0.043-0.027-0.077-0.064-0.085
		c-0.856-0.328-1.115-0.865-1.192-1.156c-0.002-0.011-0.005-0.027-0.009-0.046c-0.025-0.114-0.048-0.222,0.107-0.333
		c0.119-0.086,0.313-0.199,0.517-0.319c0.301-0.178,0.642-0.379,0.83-0.541c0.03-0.03,0.042-0.073,0.035-0.115
		c-0.007-0.043-0.032-0.079-0.069-0.097c-1.268-0.425-1.905-1.366-1.905-2.798c0-0.924,0.427-1.76,1.171-2.293
		c0.51-0.402,1.789-0.886,2.618-0.886l0.048,0c0.853,0.02,1.334,0.198,1.999,0.445c0.361,0.133,0.703,0.188,1.182,0.188
		c0.706,0,1.014-0.224,1.279-0.48c0.014,0.032,0.051,0.132,0.066,0.365c0.017,0.237-0.048,0.588-0.229,0.839
		c-0.144,0.2-0.479,0.344-0.794,0.344c-0.032,0-0.063-0.001-0.093-0.005c-0.325-0.031-0.479-0.079-0.479-0.08l-0.08,0.027
		c-0.025,0.037-0.009,0.078,0.012,0.129c0.005,0.013,0.011,0.024,0.012,0.033c0.042,0.165,0.115,0.646,0.115,0.782
		c0,1.502-0.593,2.157-1.234,2.641c-0.611,0.461-1.326,0.738-2.132,0.823h-0.001c-0.017,0-0.093,0.007-0.247,0.021
		c-0.099,0.009-0.223,0.02-0.241,0.02l-0.018,0.002c-0.141,0.04-0.504,0.212-0.504,0.534c0,0.267,0.165,0.598,0.95,0.657
		c0.159,0.012,0.33,0.023,0.509,0.036c1.037,0.071,2.332,0.161,2.942,0.368c0.839,0.305,1.36,1.056,1.36,1.958
		c0,1.347-0.959,2.615-2.566,3.39C332.372,168.027,331.581,168.206,330.725,168.206L330.725,168.206L330.725,168.206z"/>
	<path fill="#4C4847" d="M325.628,162.405c-0.455-0.062-0.785-0.123-1.178-0.307c-0.063-0.04-0.145-0.225-0.145-0.285
		c-0.042-0.633-0.042-2.47-0.042-3.673c0-0.98-0.165-1.837-0.578-2.45c-0.496-0.694-1.198-1.102-2.108-1.102
		c-0.805,0-1.88,0.551-2.769,1.306c-0.021,0.021-0.158,0.149-0.154-0.051c0.003-0.201,0.034-0.609,0.053-0.867
		c0.019-0.257-0.135-0.378-0.135-0.378c-0.579,0.286-2.208,0.673-2.81,0.735c-0.44,0.084-0.55,0.506-0.083,0.652l0,0
		c0,0,0.005,0.001,0.007,0.002c0.491,0.147,0.821,0.305,1.067,0.467c0.187,0.143,0.166,0.347,0.166,0.51
		c0.021,1.368,0.021,3.47-0.042,4.613c-0.021,0.448-0.145,0.611-0.475,0.693l0.03-0.011c-0.248,0.062-0.455,0.103-0.765,0.144
		c-0.104,0.102-0.104,0.693,0,0.816c0.207,0,1.261-0.062,2.128-0.062c1.198,0,1.818,0.062,2.128,0.062
		c0.125-0.144,0.166-0.694,0.083-0.816c-0.352-0.021-0.6-0.062-0.848-0.123c-0.331-0.081-0.413-0.244-0.434-0.612
		c-0.041-0.959-0.041-3-0.041-4.387c0-0.388,0.103-0.571,0.227-0.674c0.413-0.368,1.095-0.612,1.695-0.612
		c0.578,0,0.971,0.183,1.26,0.428c0.393,0.327,0.537,0.795,0.579,1.143c0.083,0.776,0.062,2.327,0.062,3.674
		c0,0.734-0.062,0.918-0.331,1c-0.125,0.061-0.455,0.122-0.847,0.163c-0.125,0.122-0.083,0.693,0,0.816
		c0.537,0,1.157-0.062,2.066-0.062c1.136,0,1.86,0.062,2.15,0.062C325.669,163.078,325.71,162.547,325.628,162.405L325.628,162.405z
		"/>
	<path fill="#CBC7C3" d="M375.87,161.397h0.351c0.282,0,0.39-0.098,0.39-0.354c0-0.259-0.104-0.345-0.421-0.345h-0.319V161.397
		L375.87,161.397z M376.615,162.496l-0.413-0.888h-0.332v0.888h-0.242v-2.017h0.597c0.444,0,0.628,0.197,0.628,0.564
		c0,0.295-0.139,0.485-0.398,0.539l0.426,0.914H376.615L376.615,162.496z M376.224,160.035c-0.812,0-1.456,0.641-1.456,1.457
		c0,0.803,0.645,1.448,1.452,1.448c0.802,0,1.448-0.646,1.448-1.448C377.669,160.672,377.041,160.035,376.224,160.035
		L376.224,160.035z M376.22,163.084c-0.897,0-1.597-0.699-1.597-1.597c0-0.901,0.699-1.596,1.601-1.596
		c0.879,0,1.592,0.705,1.592,1.574C377.816,162.375,377.117,163.084,376.22,163.084L376.22,163.084z"/>
</g>
<text transform="matrix(1 0 0 1 266.8323 133.4802)" font-family="verdana" font-weight="bold" font-size="8">Coté serveur</text>
<text transform="matrix(1 0 0 1 337.155 216.0061)" font-family="verdana" font-weight="bold" font-size="8">et plus ...</text>
<rect id="rect3341_1_" x="263.625" y="28.17" fill="none" stroke="#00859E" stroke-miterlimit="10" width="119.713" height="95.165"/>
<g>
	<path fill="#131B28" d="M315.712,53.325L315.712,53.325l-0.633,2.243L315.712,53.325L315.712,53.325z"/>
	<path fill="#131B28" d="M318.968,58.197l-0.697-0.005L318.968,58.197z"/>
	<path fill="#131B28" d="M318.788,61.547h0.001l-4.18,0.015L318.788,61.547L318.788,61.547z"/>
	<path fill="#131B28" d="M319.665,58.2l-0.698-0.003L319.665,58.2z"/>
	<path fill="#131B28" d="M319.155,61.261l0.728-2.776L319.155,61.261L319.155,61.261L319.155,61.261z"/>
	<path fill="#131B28" d="M334.544,48.474l-1.357,6.377L334.544,48.474z"/>
	<path fill="#131B28" d="M331.057,48.474l-1.029,4.764L331.057,48.474L331.057,48.474z"/>
	<path fill="#131B28" d="M334.311,48.188h-2.901c-0.161,0-0.32,0.13-0.354,0.286l-1.029,4.764l-1.03,4.764
		c-0.034,0.157-0.193,0.286-0.354,0.286h-1.76h-0.292c-2.031,0-1.796-1.405-1.38-3.329c0.004-0.019,0.008-0.039,0.012-0.059
		l0.047-0.243c0.002-0.015,0.005-0.031,0.008-0.045l0.093-0.494l0.099-0.528c0.03-0.16,0.076-0.393,0.106-0.54l0.469-2.288
		l0.468-2.286c0.031-0.158-0.074-0.288-0.234-0.288H323.3c-0.161,0-0.32,0.13-0.354,0.287l-0.64,3.038l-0.64,3.036
		c0,0.001,0,0.002,0,0.004l-0.06,0.283c-0.737,3.366-0.542,6.576,3.465,6.676c0.065,0.002,0.116,0.002,0.116,0.002h6.29
		c0.161,0,0.32-0.128,0.354-0.287l1.356-6.375l1.356-6.377C334.576,48.318,334.471,48.188,334.311,48.188L334.311,48.188z"/>
	<path fill="#131B28" d="M345.881,58.321c0.162,0,0.268,0.128,0.235,0.287l-0.283,1.376"/>
	<path fill="#131B28" d="M345.552,61.361l0.282-1.377L345.552,61.361L345.552,61.361L345.552,61.361z"/>
	<path fill="#131B28" d="M345.199,61.65L345.199,61.65c-0.852,0.007-3.417,0.027-5.345,0.027
		C342.2,61.677,345.198,61.65,345.199,61.65L345.199,61.65z"/>
	<path fill="#131B28" d="M338.124,56.548c-0.002-0.151,0.169-0.411,0.331-0.411l-0.362-0.006
		C337.929,57.773,338.124,56.548,338.124,56.548L338.124,56.548z"/>
	<path fill="#131B28" d="M340.119,61.676c-0.019,0-0.038,0-0.057,0C340.081,61.676,340.1,61.676,340.119,61.676z"/>
	<path fill="#131B28" d="M345.881,58.321c0.162,0,0.268,0.128,0.235,0.287l-0.283,1.376l-0.046,0.225"/>
	<path fill="#131B28" d="M341.491,61.673h-0.011H341.491z"/>
	<path fill="#131B28" d="M340.78,61.676h-0.041H340.78z"/>
	<path fill="#131B28" d="M340.563,61.676c-0.023,0-0.046,0-0.069,0C340.517,61.676,340.539,61.676,340.563,61.676z"/>
	<path fill="#131B28" d="M340.342,61.676h-0.061H340.342z"/>
	<path fill="#131B28" d="M340.738,61.676c-0.059,0-0.118,0-0.175,0C340.62,61.676,340.679,61.676,340.738,61.676z"/>
	<path fill="#131B28" d="M341.481,61.673c-0.235,0-0.47,0.002-0.7,0.002C341.01,61.675,341.245,61.674,341.481,61.673z"/>
	<path fill="#131B28" d="M345.2,61.649L345.2,61.649c-0.625,0.005-2.169,0.017-3.709,0.023
		C343.031,61.666,344.575,61.655,345.2,61.649z"/>
	<path fill="#131B28" d="M345.552,61.361l0.236-1.153l-0.236,1.154C345.552,61.361,345.552,61.361,345.552,61.361L345.552,61.361z"
		/>
	<path fill="#131B28" d="M340.494,61.676h-0.152H340.494z"/>
	<path fill="#131B28" d="M340.062,61.676h-0.207H340.062z"/>
	<path fill="#131B28" d="M340.281,61.676h-0.163H340.281z"/>
	<path fill="#131B28" d="M297.857,56.582l0.45-1.997l-0.515,2.282l-0.495,2.326l0.434-2.039
		C297.765,56.997,297.822,56.74,297.857,56.582L297.857,56.582z"/>
	<path fill="#131B28" d="M303.25,48.155h-3.186c-0.161,0-0.322,0.128-0.358,0.286l-0.302,1.332l-0.302,1.334
		c-0.035,0.157,0.067,0.285,0.229,0.285h3.209c0.161,0,0.321-0.128,0.355-0.286l0.292-1.333l0.292-1.332l0,0
		C303.514,48.283,303.41,48.155,303.25,48.155L303.25,48.155z"/>
	<path fill="#131B28" d="M302.556,52.588L302.556,52.588l-0.934,4.322L302.556,52.588z"/>
	<path fill="#131B28" d="M293.303,66.908c0,0,1.605,0.021,2.626,0.021C295.155,66.928,293.874,66.914,293.303,66.908
		C293.303,66.907,293.303,66.908,293.303,66.908L293.303,66.908z"/>
	<path fill="#131B28" d="M298.758,52.588l-0.452,1.998L298.758,52.588z"/>
	<path fill="#131B28" d="M302.326,52.302h-3.211c-0.161,0-0.321,0.128-0.357,0.286l-0.451,1.998l-0.45,1.996
		c-0.035,0.158-0.092,0.415-0.125,0.573l-0.434,2.039l-0.433,2.039c-0.034,0.158-0.104,0.411-0.154,0.564
		c0,0-0.601,1.785-1.607,1.764c-0.043,0-0.085-0.001-0.127-0.002c-0.488-0.009-0.873-0.016-0.873-0.016h0
		c-0.161-0.002-0.322,0.123-0.359,0.279l-0.333,1.4l-0.332,1.399c-0.038,0.155,0.063,0.285,0.224,0.288
		c0.572,0.007,1.851,0.021,2.626,0.021c2.52,0,3.847-1.395,4.697-5.411l0.997-4.608l0.934-4.322
		C302.591,52.43,302.486,52.302,302.326,52.302L302.326,52.302z"/>
	<path fill="#131B28" d="M347.926,61.512c-0.161,0-0.265-0.128-0.231-0.287l2.414-11.311"/>
	<path fill="#131B28" d="M351.282,61.225l0.977-4.827L351.282,61.225z"/>
	<path fill="#131B28" d="M347.73,61.37c-0.02-0.079-0.009-0.272,0.025-0.43l1.146-5.369l-1.206,5.655
		c-0.034,0.158,0.069,0.287,0.231,0.287h0.293C348.058,61.512,347.749,61.448,347.73,61.37L347.73,61.37z"/>
	<path fill="#131B28" d="M351.092,61.448c-0.088,0.035-0.292,0.064-0.452,0.064h0.292c0.161,0,0.32-0.128,0.351-0.288l0.059-0.286
		C351.309,61.096,351.179,61.413,351.092,61.448L351.092,61.448z"/>
	<path fill="#131B28" d="M351.772,58.813l0.431-2.132c0,0.001-0.001,0.003-0.001,0.004L351.772,58.813L351.772,58.813z"/>
	<path fill="#131B28" d="M361.301,50.672l0.133,0.55c0.035,0.157-0.066,0.285-0.227,0.286"/>
	<path fill="#131B28" d="M351.342,60.939l0.429-2.126L351.342,60.939z"/>
	<path fill="#131B28" d="M361.168,50.11l0.131,0.563L361.168,50.11z"/>
	<path fill="#131B28" d="M352.202,56.681c0.032-0.157,0.085-0.413,0.119-0.569l0.46-2.157l-0.522,2.443L352.202,56.681
		L352.202,56.681z"/>
	<path fill="#131B28" d="M350.149,49.73c-0.031,0.152-0.073,0.344-0.101,0.472l-1.146,5.37l1.208-5.656L350.149,49.73L350.149,49.73
		z"/>
	<path fill="#131B28" d="M361.431,51.222l-0.133-0.55l-0.131-0.563l-0.066-0.285c-0.262-1.013-1.025-1.598-2.689-1.598l-2.587-0.003
		l-2.382-0.002h-0.205h-2.477c-0.161,0-0.321,0.128-0.354,0.286l0,0l-0.118,0.56l-0.141,0.662l-0.039,0.186l-1.207,5.656
		l-1.146,5.369c-0.034,0.158-0.045,0.352-0.026,0.43s0.329,0.143,0.489,0.143h2.42c0.16,0,0.364-0.029,0.451-0.064
		c0.089-0.035,0.218-0.352,0.251-0.51l0.429-2.126l0.43-2.127c0.001-0.001,0.001-0.003,0.001-0.005l0.057-0.283l0.522-2.443
		l0.46-2.158c0.034-0.157,0.193-0.285,0.353-0.285l7.612-0.004C361.367,51.507,361.469,51.379,361.431,51.222L361.431,51.222z"/>
	<path fill="#131B28" d="M371.23,46.253c-0.16,0-0.426,0.002-0.586,0.002h-2.436c-0.162,0-0.369,0.109-0.459,0.242l-5.387,7.893
		c-0.092,0.133-0.195,0.113-0.23-0.043l-0.396-1.738c-0.037-0.158-0.197-0.286-0.357-0.286h-3.463c-0.162,0-0.258,0.126-0.215,0.281
		l1.553,5.437c0.045,0.155,0.047,0.409,0.008,0.565l-0.676,2.631c-0.041,0.156,0.059,0.284,0.221,0.284h3.422
		c0.16,0,0.326-0.128,0.365-0.284l0.676-2.631c0.041-0.156,0.152-0.389,0.25-0.518l8.746-11.607
		c0.096-0.128,0.043-0.233-0.117-0.232L371.23,46.253L371.23,46.253z"/>
	<path fill="#131B28" d="M343.716,53.062v-0.004c-0.02,0.175-0.181,0.303-0.342,0.303h-4.391c-0.152,0-0.228-0.104-0.207-0.231
		c0.001-0.004,0.002-0.007,0.004-0.01c0,0-0.001,0-0.002,0.001c0-0.005,0-0.009,0.002-0.015c0,0,0.009-0.031,0.021-0.075
		c0.418-1.115,1.273-1.847,2.878-1.847C343.487,51.185,343.839,52.068,343.716,53.062L343.716,53.062z M342.428,47.993
		c-5.636,0-6.972,3.421-7.721,6.873c-0.749,3.519-0.685,6.81,5.147,6.81h0.207c0.019,0,0.038,0,0.057,0h0.162h0.061h0.153
		c0.023,0,0.045,0,0.068,0c0.058,0,0.117,0,0.176,0h0.042c0.23,0,0.464-0.002,0.7-0.002h0.012c1.54-0.007,3.085-0.019,3.71-0.023
		c0.16-0.003,0.317-0.131,0.35-0.288l0.236-1.154l0.046-0.225l0.282-1.376c0.033-0.158-0.073-0.287-0.234-0.287h-5.243
		c-2.085,0-2.704-0.555-2.477-2.184h8.382l-0.001,0.001c0.002,0,0.003-0.001,0.006-0.001c0.133-0.002,0.257-0.094,0.305-0.216
		c0.009-0.024,0.017-0.048,0.021-0.073l-0.001,0C348.115,51.155,347.759,47.993,342.428,47.993L342.428,47.993z"/>
	<path fill="#131B28" d="M315.791,53.043l-0.079,0.282c0,0,0,0,0,0l-0.633,2.243l-0.633,2.243c-0.043,0.154-0.21,0.282-0.373,0.282
		h-3.35c-2.54,0-3.159-1.988-2.54-4.918c0.618-2.999,1.831-4.862,4.332-5.051c3.417-0.257,4.101,2.146,3.275,4.921V53.043z
		 M318.088,57.919c0,0,1.58-3.834,1.938-6.049c0.489-2.964-0.995-7.264-6.729-7.264c-5.701,0-8.177,4.105-9.121,8.568
		c-0.945,4.495,0.293,8.437,5.961,8.404l4.472-0.016l4.18-0.015c0.161-0.002,0.326-0.13,0.366-0.285l0.728-2.777
		c0.041-0.156-0.057-0.284-0.218-0.285l-0.698-0.004l-0.697-0.004c-0.137-0.001-0.215-0.09-0.199-0.208
		C318.074,57.963,318.079,57.941,318.088,57.919L318.088,57.919z"/>
	<path fill="#131B28" d="M346.311,55.353c0,0.106-0.086,0.192-0.192,0.192c-0.105,0-0.192-0.086-0.192-0.192
		c0-0.106,0.086-0.192,0.192-0.192C346.225,55.161,346.311,55.246,346.311,55.353z"/>
	<path fill="#0868AC" d="M274.555,50.367c-1.575,2.263-1.378,5.207-0.176,7.61c0.029,0.058,0.059,0.114,0.088,0.171
		c0.019,0.036,0.037,0.073,0.056,0.107c0.011,0.021,0.023,0.042,0.035,0.063c0.021,0.038,0.042,0.075,0.063,0.112
		c0.038,0.066,0.076,0.131,0.116,0.196c0.021,0.037,0.042,0.073,0.065,0.108c0.043,0.071,0.087,0.14,0.133,0.209
		c0.018,0.029,0.036,0.059,0.056,0.087c0.063,0.094,0.127,0.186,0.193,0.278c0.001,0.002,0.003,0.006,0.005,0.008
		c0.011,0.014,0.022,0.029,0.033,0.044c0.057,0.079,0.116,0.157,0.176,0.234c0.022,0.028,0.044,0.056,0.066,0.084
		c0.053,0.066,0.107,0.133,0.162,0.2c0.022,0.024,0.042,0.049,0.063,0.074c0.073,0.087,0.148,0.174,0.226,0.259
		c0.001,0.001,0.003,0.003,0.004,0.004c0.003,0.005,0.006,0.007,0.009,0.01c0.075,0.083,0.152,0.162,0.229,0.242
		c0.024,0.025,0.048,0.049,0.074,0.075c0.06,0.061,0.121,0.121,0.183,0.181c0.025,0.023,0.05,0.048,0.076,0.071
		c0.083,0.078,0.166,0.155,0.252,0.229c0.001,0.002,0.002,0.003,0.004,0.003c0.014,0.013,0.029,0.025,0.043,0.038
		c0.075,0.065,0.152,0.13,0.229,0.193c0.032,0.026,0.063,0.05,0.094,0.076c0.064,0.05,0.127,0.1,0.191,0.148
		c0.034,0.026,0.068,0.051,0.102,0.078c0.071,0.052,0.142,0.103,0.215,0.153c0.025,0.019,0.051,0.038,0.077,0.056
		c0.008,0.005,0.015,0.01,0.022,0.015c0.067,0.047,0.137,0.092,0.208,0.137c0.03,0.021,0.059,0.041,0.089,0.061
		c0.107,0.067,0.215,0.135,0.326,0.2c0.029,0.017,0.06,0.034,0.09,0.05c0.081,0.046,0.163,0.092,0.245,0.137
		c0.044,0.025,0.09,0.047,0.135,0.07c0.058,0.031,0.116,0.061,0.175,0.091c0.013,0.006,0.026,0.012,0.041,0.019
		c0.023,0.012,0.047,0.022,0.071,0.035c0.091,0.044,0.184,0.086,0.277,0.128c0.02,0.009,0.039,0.018,0.059,0.026
		c0.106,0.046,0.214,0.091,0.322,0.134c0.027,0.011,0.052,0.021,0.079,0.031c0.101,0.039,0.202,0.077,0.305,0.113
		c0.013,0.004,0.025,0.008,0.039,0.013c0.112,0.04,0.226,0.076,0.339,0.112c0.027,0.008,0.055,0.016,0.082,0.024
		c0.116,0.035,0.231,0.077,0.352,0.099c7.612,1.388,9.824-4.575,9.824-4.575c-1.857,2.42-5.155,3.058-8.278,2.348
		c-0.118-0.028-0.233-0.063-0.349-0.098c-0.028-0.009-0.058-0.019-0.087-0.028c-0.112-0.034-0.224-0.07-0.335-0.108
		c-0.016-0.005-0.031-0.01-0.047-0.017c-0.099-0.035-0.198-0.071-0.295-0.11c-0.028-0.01-0.055-0.021-0.083-0.032
		c-0.107-0.042-0.214-0.086-0.319-0.133c-0.022-0.009-0.043-0.019-0.064-0.027c-0.091-0.042-0.181-0.083-0.27-0.126
		c-0.025-0.013-0.051-0.024-0.077-0.038c-0.07-0.034-0.14-0.07-0.208-0.105c-0.046-0.024-0.094-0.048-0.14-0.074
		c-0.084-0.045-0.167-0.091-0.25-0.139c-0.028-0.016-0.056-0.031-0.084-0.047c-0.109-0.064-0.218-0.131-0.325-0.2
		c-0.03-0.019-0.059-0.039-0.087-0.059c-0.078-0.049-0.156-0.101-0.232-0.154c-0.025-0.017-0.05-0.036-0.075-0.052
		c-0.073-0.052-0.146-0.104-0.219-0.159c-0.033-0.024-0.065-0.048-0.097-0.073c-0.066-0.05-0.132-0.102-0.197-0.154
		c-0.03-0.023-0.059-0.046-0.088-0.07c-0.083-0.068-0.166-0.138-0.248-0.208c-0.008-0.008-0.017-0.015-0.025-0.023
		c-0.088-0.076-0.174-0.155-0.259-0.234c-0.025-0.024-0.049-0.047-0.073-0.07c-0.063-0.06-0.124-0.121-0.186-0.183
		c-0.024-0.024-0.048-0.048-0.073-0.073c-0.077-0.079-0.153-0.16-0.228-0.241c-0.004-0.005-0.007-0.007-0.011-0.013
		c-0.079-0.086-0.155-0.174-0.232-0.264c-0.02-0.024-0.04-0.047-0.061-0.071c-0.056-0.067-0.111-0.136-0.167-0.206
		c-0.02-0.024-0.04-0.05-0.061-0.076c-0.065-0.085-0.129-0.169-0.191-0.256c-1.734-2.365-2.358-5.628-0.972-8.308"/>
	<path fill="#0868AC" d="M279.442,48.461c-1.139,1.639-1.078,3.832-0.188,5.563c0.148,0.291,0.316,0.572,0.503,0.841
		c0.171,0.245,0.36,0.536,0.586,0.732c0.082,0.09,0.168,0.178,0.256,0.265c0.022,0.022,0.044,0.044,0.067,0.066
		c0.085,0.083,0.171,0.163,0.261,0.243c0.004,0.003,0.007,0.007,0.011,0.009c0,0.001,0.002,0.001,0.003,0.002
		c0.098,0.086,0.201,0.17,0.304,0.252c0.022,0.018,0.046,0.035,0.069,0.054c0.104,0.08,0.209,0.158,0.319,0.233
		c0.003,0.002,0.006,0.004,0.009,0.007c0.048,0.033,0.097,0.064,0.145,0.096c0.023,0.015,0.045,0.031,0.069,0.045
		c0.077,0.051,0.156,0.099,0.236,0.145c0.011,0.007,0.023,0.014,0.034,0.02c0.068,0.039,0.138,0.078,0.208,0.116
		c0.024,0.014,0.049,0.026,0.074,0.04c0.048,0.025,0.096,0.051,0.147,0.075c0.006,0.003,0.014,0.007,0.021,0.01
		c0.1,0.049,0.202,0.097,0.304,0.142c0.023,0.009,0.045,0.018,0.068,0.027c0.081,0.036,0.165,0.07,0.249,0.102
		c0.036,0.014,0.072,0.026,0.107,0.039c0.076,0.028,0.153,0.054,0.23,0.08c0.034,0.011,0.068,0.022,0.104,0.033
		c0.11,0.034,0.218,0.077,0.332,0.096c5.878,0.974,7.235-3.552,7.235-3.552c-1.223,1.762-3.592,2.603-6.12,1.946
		c-0.112-0.029-0.223-0.062-0.333-0.097c-0.034-0.01-0.067-0.021-0.1-0.032c-0.079-0.025-0.156-0.053-0.233-0.081
		c-0.036-0.012-0.07-0.025-0.104-0.039c-0.085-0.032-0.168-0.065-0.251-0.1c-0.023-0.01-0.045-0.019-0.067-0.029
		c-0.104-0.045-0.205-0.093-0.307-0.143c-0.052-0.025-0.103-0.052-0.154-0.078c-0.03-0.015-0.059-0.03-0.089-0.046
		c-0.066-0.035-0.13-0.072-0.195-0.109c-0.015-0.009-0.031-0.017-0.046-0.026c-0.079-0.046-0.158-0.095-0.236-0.144
		c-0.023-0.016-0.046-0.032-0.071-0.048c-0.051-0.033-0.102-0.067-0.152-0.101c-0.108-0.075-0.214-0.153-0.317-0.232
		c-0.024-0.019-0.048-0.037-0.071-0.056c-1.107-0.875-1.984-2.068-2.4-3.421c-0.437-1.404-0.343-2.98,0.414-4.259"/>
	<path fill="#0868AC" d="M283.552,47.036c-0.671,0.988-0.737,2.214-0.271,3.306c0.491,1.158,1.497,2.066,2.672,2.496
		c0.048,0.019,0.097,0.035,0.146,0.051c0.022,0.006,0.043,0.013,0.065,0.02c0.069,0.022,0.138,0.047,0.208,0.061
		c3.246,0.627,4.126-1.666,4.361-2.003c-0.771,1.11-2.068,1.376-3.658,0.991c-0.125-0.03-0.263-0.076-0.383-0.119
		c-0.156-0.055-0.309-0.118-0.458-0.19c-0.282-0.135-0.551-0.3-0.801-0.489c-1.423-1.08-2.306-3.139-1.377-4.817"/>
	<path fill="#0868AC" d="M320.105,66.274l-0.936,2.13h-1.033l0.084-1.936l-0.76,1.936h-0.999l-0.026-2.13l0.11-0.527h0.708
		l-0.137,2.105l0.786-2.105h0.988l-0.072,2.131l0.781-2.131h0.616L320.105,66.274L320.105,66.274z"/>
	<path fill="#0868AC" d="M321.735,66.904c0.091-0.417,0.065-0.494-0.149-0.494h-0.325l-0.208,0.975l-0.318,1.019h-0.604l0.494-2.311
		l0.072-0.339h0.552l0.072,0.156c0,0,0.318-0.188,0.629-0.188c0.664,0,0.612,0.499,0.468,1.182H321.735L321.735,66.904z"/>
	<path fill="#0868AC" d="M323.698,65.416c-0.267,0-0.436-0.078-0.372-0.403c0.072-0.325,0.281-0.403,0.54-0.403
		c0.26,0,0.436,0.078,0.364,0.403C324.165,65.332,323.957,65.416,323.698,65.416L323.698,65.416z M323.411,68.404h-0.597
		l0.116-1.039l0.208-0.961l-0.416-0.091l0.117-0.565h1.137L323.411,68.404L323.411,68.404z"/>
	<path fill="#0868AC" d="M326.003,66.311l-0.747,0.092l-0.215,1.013c-0.059,0.279-0.059,0.357,0.189,0.357h0.5l-0.104,0.533
		c0,0-0.456,0.137-0.65,0.137c-0.767,0-0.76-0.422-0.623-1.053l0.207-0.993l-0.416-0.091l0.124-0.566h0.436l0.247-0.669h0.591
		l-0.144,0.669h0.728L326.003,66.311L326.003,66.311z"/>
	<path fill="#0868AC" d="M327.555,66.345c-0.351,0-0.533,0.182-0.604,0.506l1-0.084C327.997,66.546,327.951,66.345,327.555,66.345
		L327.555,66.345z M326.854,67.332c-0.046,0.325,0.078,0.435,0.493,0.435h1.045l-0.103,0.494c0,0-0.63,0.175-1.099,0.175
		c-1.163,0-1.175-0.655-1.026-1.358c0.149-0.688,0.416-1.37,1.54-1.37c1.085,0,1.138,0.656,0.872,1.624H326.854L326.854,67.332z"/>
	<path fill="#0868AC" d="M330.959,68.403h-0.598l0.117-1.039l0.422-1.975l-0.416-0.098l0.124-0.565h1.137L330.959,68.403
		L330.959,68.403z"/>
	<path fill="#0868AC" d="M333.117,66.345c-0.351,0-0.532,0.182-0.604,0.506l1.001-0.084
		C333.559,66.546,333.514,66.345,333.117,66.345L333.117,66.345z M332.416,67.332c-0.046,0.325,0.078,0.435,0.494,0.435h1.045
		l-0.104,0.494c0,0-0.63,0.175-1.098,0.175c-1.162,0-1.175-0.655-1.025-1.358c0.15-0.688,0.416-1.37,1.54-1.37
		c1.085,0,1.136,0.656,0.871,1.624H332.416L332.416,67.332z"/>
	<path fill="#0868AC" d="M336.877,66.377c0,0-0.759,0.007-0.967,0.007c-0.442,0-0.488,0.136-0.521,0.278l-0.025,0.13l1.404,0.104
		c0,0,0.005,0.448-0.053,0.701c-0.083,0.423-0.52,0.851-1.305,0.851c-0.39,0-1.02-0.149-1.02-0.149l0.11-0.514h0.968
		c0.429,0,0.487-0.117,0.514-0.234l0.032-0.168l-1.378-0.104c0,0-0.051-0.345,0.02-0.688c0.104-0.467,0.532-0.871,1.319-0.871
		c0.389,0,1.02,0.143,1.02,0.143L336.877,66.377L336.877,66.377z"/>
	<path fill="#0868AC" d="M339.489,66.377c0,0-0.759,0.007-0.968,0.007c-0.441,0-0.487,0.136-0.519,0.278l-0.026,0.13l1.404,0.104
		c0,0,0.005,0.448-0.053,0.701c-0.084,0.423-0.52,0.851-1.306,0.851c-0.39,0-1.02-0.149-1.02-0.149l0.11-0.514h0.968
		c0.429,0,0.488-0.117,0.514-0.234l0.033-0.168l-1.378-0.104c0,0-0.052-0.345,0.02-0.688c0.104-0.467,0.532-0.871,1.319-0.871
		c0.39,0,1.021,0.143,1.021,0.143L339.489,66.377L339.489,66.377z"/>
	<path fill="#0868AC" d="M340.307,68.827h-0.519l0.02-0.391c-0.189-0.012-0.286-0.149-0.241-0.376
		c0.072-0.325,0.273-0.403,0.54-0.403c0.259,0,0.434,0.078,0.364,0.403L340.307,68.827L340.307,68.827z"/>
	<path fill="#0868AC" d="M343.782,66.404c-0.39,0-0.526,0.234-0.617,0.663s-0.066,0.682,0.325,0.682h0.54l0.298-1.345H343.782z
		 M344.673,68.06l-0.072,0.344l-0.544-0.006l-0.079-0.169c0,0-0.481,0.208-0.805,0.208c-0.832,0-0.872-0.682-0.721-1.37
		c0.148-0.702,0.473-1.364,1.298-1.364c0.3,0,0.702,0.149,0.702,0.149l0.332-1.124h0.598L344.673,68.06L344.673,68.06z"/>
	<path fill="#0868AC" d="M346.823,66.377c-0.507,0-0.669,0.286-0.759,0.702c-0.085,0.422-0.045,0.708,0.454,0.708
		c0.52,0,0.675-0.279,0.766-0.708C347.376,66.676,347.349,66.377,346.823,66.377L346.823,66.377z M346.382,68.443
		c-1.071,0-1.156-0.669-1.014-1.365c0.149-0.694,0.527-1.357,1.599-1.357c1.064,0,1.163,0.663,1.013,1.357
		C347.83,67.786,347.453,68.443,346.382,68.443z"/>
	<path fill="#0868AC" d="M352.463,68.403l0.118-1.026l0.057-0.293c0.085-0.389,0.137-0.675-0.272-0.675h-0.318
		c0.014,0.202-0.026,0.429-0.078,0.669l-0.28,1.325h-0.604l0.117-1.026l0.059-0.293c0.084-0.389,0.137-0.675-0.272-0.675h-0.26
		l-0.429,1.994h-0.695l0.565-2.656h0.545l0.084,0.163c0,0,0.371-0.196,0.668-0.196c0.229,0,0.397,0.105,0.457,0.234
		c0.129-0.071,0.5-0.234,0.766-0.234c0.831,0,0.805,0.676,0.656,1.365l-0.279,1.325H352.463L352.463,68.403z"/>
	<path fill="#0868AC" d="M355.224,66.377c-0.507,0-0.669,0.286-0.761,0.702c-0.084,0.422-0.045,0.708,0.455,0.708
		c0.521,0,0.676-0.279,0.768-0.708C355.776,66.676,355.75,66.377,355.224,66.377z M354.782,68.443c-1.073,0-1.158-0.669-1.014-1.365
		c0.149-0.694,0.526-1.357,1.598-1.357c1.065,0,1.163,0.663,1.014,1.357C356.231,67.786,355.854,68.443,354.782,68.443z"/>
	<path fill="#0868AC" d="M358.185,66.904c0.09-0.417,0.064-0.494-0.148-0.494h-0.326l-0.209,0.975l-0.318,1.019h-0.604l0.494-2.311
		l0.071-0.339h0.551l0.072,0.156c0,0,0.318-0.188,0.631-0.188c0.662,0,0.609,0.499,0.467,1.182H358.185L358.185,66.904z"/>
	<path fill="#0868AC" d="M360.511,66.345c-0.35,0-0.533,0.182-0.604,0.506l1-0.084C360.955,66.546,360.908,66.345,360.511,66.345
		L360.511,66.345z M359.81,67.332c-0.045,0.325,0.078,0.435,0.494,0.435h1.045l-0.104,0.494c0,0-0.631,0.175-1.098,0.175
		c-1.164,0-1.176-0.655-1.027-1.358c0.15-0.688,0.416-1.37,1.539-1.37c1.086,0,1.139,0.656,0.873,1.624H359.81L359.81,67.332z"/>
	<path fill="#0868AC" d="M362.115,68.443c-0.271,0-0.441-0.077-0.369-0.396c0.063-0.326,0.266-0.403,0.539-0.403
		c0.254,0,0.428,0.077,0.363,0.403C362.576,68.359,362.369,68.443,362.115,68.443z"/>
</g>
<text transform="matrix(1 0 0 1 266.8323 38.6052)" font-family="verdana" font-weight="bold" font-size="8">Coté client</text>
<text transform="matrix(1 0 0 1 337.155 120.0061)" font-family="verdana" font-weight="bold" font-size="8">et plus ...</text>
<text transform="matrix(1 0 0 1 279.4734 84.7229)"><tspan x="0" y="0" font-family="arial" font-weight="bold" font-size="8">underscore, livereload</tspan><tspan x="8.443" y="9.6" font-family="arial" font-weight="bold" font-size="8">blaze, spacebars, </tspan><tspan x="20.02" y="19.2" font-family="arial" font-weight="bold" font-size="8">minimongo,</tspan></text>
<rect id="rect3341_2_" x="220.574" y="28.17" fill="none" stroke="#E52D62" stroke-width="1.0052" stroke-miterlimit="10" width="40.83" height="192.33"/>
<text transform="matrix(4.489659e-011 -1 1 4.489659e-011 245.0911 213.6116)" font-family="courier" font-weight="bold" font-size="11">Outils en ligne de commande</text>
<rect id="rect3341_3_" x="161.133" y="24.67" fill="none" stroke="#000000" stroke-width="0.9633" stroke-miterlimit="10" width="431.308" height="200.648"/>
<g>
	<g>
		<g transform="translate(303.542858, 0.000000)">
			<path fill="#DF4F4F" d="M-135.154,106.021l42.387-40.016c0,0,0.962-1.364-0.16-2.406c-1.122-1.042-2.244-0.24-2.244-0.24
				L-135.154,106.021L-135.154,106.021z"/>
			<path fill="#DF4F4F" d="M-131.148,93.351l32.852-30.473c0,0,0.961-1.363-0.16-2.406c-1.122-1.042-2.243-0.241-2.243-0.241
				L-131.148,93.351L-131.148,93.351z"/>
			<path fill="#DF4F4F" d="M-122.574,102.252l32.852-30.474c0,0,0.961-1.362-0.161-2.405c-1.121-1.042-2.243-0.241-2.243-0.241
				L-122.574,102.252L-122.574,102.252z"/>
			<path fill="#DF4F4F" d="M-127.702,82.64l22.952-21.291c0,0,0.672-0.953-0.112-1.681c-0.783-0.729-1.567-0.168-1.567-0.168
				L-127.702,82.64L-127.702,82.64z"/>
			<path fill="#DF4F4F" d="M-112.638,99.32l22.952-21.29c0,0,0.672-0.954-0.112-1.681c-0.784-0.729-1.567-0.168-1.567-0.168
				L-112.638,99.32L-112.638,99.32z"/>
			<path fill="#DF4F4F" d="M-122.734,71.698l10.434-9.649c0,0,0.314-0.471-0.053-0.831c-0.367-0.36-0.734-0.083-0.734-0.083
				L-122.734,71.698L-122.734,71.698z"/>
			<path fill="#DF4F4F" d="M-102.062,93.993l10.435-9.65c0,0,0.314-0.472-0.053-0.831c-0.367-0.361-0.734-0.084-0.734-0.084
				L-102.062,93.993L-102.062,93.993z"/>
		</g>
		<g transform="translate(0.000000, 44.184078)">
			<path fill="#26262C" enable-background="new    " d="M185.552,8.719h28.136V2.354h-9.076v-4.774l9.076-6.139v-7.274l-9.756,6.819
				c0,0-2.394-6.056-8.887-6.056c-9.167,0-9.492,8.33-9.492,8.33L185.552,8.719L185.552,8.719z"/>
			<path fill="#26262C" d="M185.553,79.196h28.135v-21.37h-5.445v15.004h-5.9V59.871h-5.446v12.958h-5.903V57.825h-5.441V79.196
				L185.553,79.196z"/>
			<path fill="#26262C" d="M185.553,110.115h5.445v-8.413h22.689v-6.365h-22.689v-8.412h-5.445V110.115L185.553,110.115z"/>
			<path fill="#26262C" d="M185.553,139.214h28.135v-21.37h-5.445v15.004h-5.9V119.89h-5.446v12.958h-5.903v-15.004h-5.441V139.214
				L185.553,139.214z"/>
			<path fill="#26262C" d="M185.552,175.135h28.136l0-6.362H195.99l11.345-7.729l-11.345-7.732h17.699v-6.367h-28.136v6.367
				l11.571,7.732l-11.571,7.729V175.135L185.552,175.135z"/>
			<g>
				<path fill="#FFFFFF" enable-background="new    " d="M190.893,2.099h8.167v-8.185c0,0,0-3.128-4.084-3.128
					c-4.239,0-4.083,3.811-4.083,3.811V2.099L190.893,2.099z"/>
			</g>
		</g>
	</g>
</g>
<rect id="rect3341_4_" x="385.338" y="28.334" fill="none" stroke="#1A296F" stroke-miterlimit="10" width="202.154" height="192.167"/>
<text transform="matrix(1 0 0 1 404.3435 126.3352)" font-family="verdana" font-weight="bold" font-size="21">APPLICATION</text>
<g>
	<rect x="451.502" y="38.257" fill="#F7DF1E" width="61.14" height="61.14"/>
	<path d="M492.571,86.024c1.231,2.011,2.835,3.488,5.669,3.488c2.381,0,3.9-1.191,3.9-2.835c0-1.97-1.563-2.667-4.183-3.813
		l-1.436-0.615c-4.147-1.767-6.9-3.979-6.9-8.657c0-4.309,3.282-7.59,8.414-7.59c3.652,0,6.279,1.272,8.171,4.602l-4.474,2.871
		c-0.985-1.765-2.047-2.462-3.697-2.462c-1.684,0-2.749,1.068-2.749,2.462c0,1.724,1.067,2.422,3.533,3.488l1.436,0.616
		c4.881,2.094,7.637,4.228,7.637,9.026c0,5.173-4.063,8.005-9.519,8.005c-5.336,0-8.785-2.542-10.471-5.875L492.571,86.024z
		 M472.277,86.52c0.902,1.602,1.724,2.956,3.696,2.956c1.888,0,3.079-0.739,3.079-3.61V66.33h5.746v19.612
		c0,5.949-3.489,8.657-8.579,8.657c-4.601,0-7.264-2.381-8.619-5.247L472.277,86.52z"/>
</g>
<g>
	<title>Slice 1</title>
	<description>Created with Sketch (http://www.bohemiancoding.com/sketch)</description>
	<g id="Page_1">
		<g id="Layer_1">
			<path id="Shape" fill="#131313" d="M547.239,139.845h-4.53l4.712,5.112v2.433h-9.703v-2.849h4.709l-4.709-5.112v-2.437h9.521
				V139.845L547.239,139.845z M535.793,139.845h-4.53l4.711,5.112v2.433h-9.703v-2.849h4.71l-4.71-5.112v-2.437h9.522V139.845
				L535.793,139.845z M524.459,139.961h-4.888v4.461h4.888v2.968h-8.362v-10.398h8.362V139.961L524.459,139.961z"/>
			<path id="Shape_1_" fill="#1572B6" d="M509.435,207.849l-4.968-55.712h54.581l-4.973,55.703l-22.352,6.197L509.435,207.849z"/>
			<path id="Shape_2_" fill="#33A9DC" d="M531.759,209.3l18.061-5.007l4.249-47.601h-22.31V209.3z"/>
			<g id="Group" transform="translate(55.000000, 142.000000)">
				<path id="Shape_3_" fill="#FFFFFF" d="M476.759,34.877h9.041l0.625-6.997h-9.666v-6.833h0.023h17.11l-0.163,1.833l-1.68,18.829
					h-15.291V34.877z"/>
				<path id="Shape_4_" fill="#EBEBEB" d="M476.8,52.622l-0.029,0.009l-7.61-2.056l-0.487-5.449h-3.697h-3.161l0.957,10.728
					l13.996,3.887l0.032-0.009V52.622z"/>
				<path id="Shape_5_" fill="#FFFFFF" d="M485.219,41.42l-0.823,9.15l-7.62,2.057v7.11l14.008-3.884l0.103-1.153l1.189-13.28
					H485.219z"/>
				<path id="Shape_6_" fill="#EBEBEB" d="M476.782,21.047v4.244v2.572v0.018h-16.483h-0.021l-0.137-1.536l-0.311-3.464
					l-0.164-1.833H476.782z"/>
				<path id="Shape_7_" fill="#EBEBEB" d="M476.759,34.878v4.243v2.572v0.017h-7.491h-0.022l-0.137-1.535l-0.312-3.465l-0.163-1.832
					H476.759z"/>
			</g>
		</g>
	</g>
</g>
<g>
	<title>HTML5 Logo</title>
	<polygon fill="#E44D26" points="418.586,206.898 413.704,152.129 467.359,152.129 462.471,206.89 440.498,212.981 	"/>
	<polygon fill="#F16529" points="440.531,208.324 458.287,203.402 462.464,156.607 440.531,156.607 	"/>
	<polygon fill="#EBEBEB" points="440.531,176.92 431.642,176.92 431.028,170.042 440.531,170.042 440.531,163.323 440.508,163.323 
		423.687,163.323 423.848,165.126 425.498,183.636 440.531,183.636 	"/>
	<polygon fill="#EBEBEB" points="440.531,194.365 440.503,194.373 433.02,192.352 432.543,186.995 428.907,186.995 425.8,186.995 
		426.739,197.543 440.5,201.364 440.531,201.353 	"/>
	<path d="M418.694,137.244h3.414v3.372h3.123v-3.372h3.413v10.214h-3.413v-3.42h-3.123v3.42h-3.414V137.244L418.694,137.244z"/>
	<path d="M433.134,140.631h-3.005v-3.387h9.426v3.387h-3.007v6.827h-3.414V140.631L433.134,140.631z"/>
	<path d="M441.051,137.244h3.56l2.188,3.588l2.188-3.588h3.563v10.214h-3.401v-5.063l-2.349,3.632h-0.059l-2.351-3.632v5.063h-3.339
		V137.244z"/>
	<path d="M454.247,137.244h3.414v6.837h4.801v3.377h-8.215V137.244z"/>
	<polygon fill="#FFFFFF" points="440.508,176.92 440.508,183.636 448.78,183.636 448,192.349 440.508,194.37 440.508,201.36 
		454.278,197.543 454.379,196.408 455.959,178.724 456.121,176.92 454.311,176.92 	"/>
	<polygon fill="#FFFFFF" points="440.508,163.323 440.508,167.496 440.508,170.025 440.508,170.042 456.711,170.042 
		456.711,170.042 456.731,170.042 456.867,168.531 457.175,165.126 457.335,163.323 	"/>
</g>
</svg>
