<?xml version="1.0" encoding="utf-8"?>
<!-- Generator: Adobe Illustrator 15.0.2, SVG Export Plug-In . SVG Version: 6.00 Build 0)  -->
<!DOCTYPE svg PUBLIC "-//W3C//DTD SVG 1.1//EN" "http://www.w3.org/Graphics/SVG/1.1/DTD/svg11.dtd">
<svg version="1.1"
	 id="Calque_1" sodipodi:docname="HTTP.svg" inkscape:version="0.91 r13725" xmlns:dc="http://purl.org/dc/elements/1.1/" xmlns:cc="http://creativecommons.org/ns#" xmlns:rdf="http://www.w3.org/1999/02/22-rdf-syntax-ns#" xmlns:svg="http://www.w3.org/2000/svg" xmlns:sodipodi="http://sodipodi.sourceforge.net/DTD/sodipodi-0.dtd" xmlns:inkscape="http://www.inkscape.org/namespaces/inkscape"
	 xmlns="http://www.w3.org/2000/svg" xmlns:xlink="http://www.w3.org/1999/xlink" x="0px" y="0px" width="365.231px"
	 height="265.5px" viewBox="148.472 3.105 365.231 265.5" enable-background="new 148.472 3.105 365.231 265.5"
	 xml:space="preserve">
<sodipodi:namedview  id="namedview4105" inkscape:window-maximized="1" inkscape:current-layer="Calque_1" inkscape:window-y="-4" inkscape:window-x="-4" inkscape:window-height="975" inkscape:window-width="1280" inkscape:pageshadow="2" inkscape:pageopacity="0" bordercolor="#666666" pagecolor="#ffffff" inkscape:cy="195.89441" guidetolerance="10" inkscape:cx="386.72718" gridtolerance="10" inkscape:zoom="1.016466" objecttolerance="10" borderopacity="1" showgrid="false">
	</sodipodi:namedview>
<rect id="rect3341" x="213.935" y="135.809" fill="none" stroke="#339933" stroke-miterlimit="10" width="61.674" height="49.027"/>
<text transform="matrix(1 0 0 1 177.0603 135.2932)" fill="#FFFFFF" font-family="verdana" font-weight="bold" font-size="6.4398">1</text>
<g>
	<g>
		<path fill="#FFFFFF" stroke="#000000" stroke-width="0.5152" stroke-miterlimit="10" d="M227.079,169.168
			c0-0.16-0.097-0.32-0.222-0.383l-3.636-2.105c-0.063-0.03-0.129-0.063-0.191-0.063h-0.031c-0.063,0-0.128,0.032-0.191,0.063
			l-3.673,2.105c-0.129,0.063-0.223,0.223-0.223,0.383v5.646c0,0.063,0.031,0.16,0.097,0.191s0.16,0.031,0.223,0l2.171-1.245
			c0.128-0.098,0.223-0.224,0.223-0.383v-2.647c0-0.16,0.097-0.289,0.222-0.383l0.926-0.543c0.063-0.031,0.16-0.063,0.222-0.063
			c0.063,0,0.16,0.031,0.223,0.063l0.925,0.543c0.128,0.063,0.223,0.223,0.223,0.383v2.647c0,0.159,0.097,0.288,0.223,0.383
			l2.171,1.245c0.062,0.031,0.159,0.031,0.222,0s0.097-0.098,0.097-0.191V169.168z"/>
		<path fill="#FFFFFF" stroke="#000000" stroke-width="0.5152" stroke-miterlimit="10" d="M246.51,161.416
			c-0.063-0.031-0.16-0.031-0.223,0c-0.063,0.032-0.097,0.098-0.097,0.191v5.584c0,0.063-0.031,0.098-0.063,0.129
			c-0.031,0.031-0.097,0.031-0.16,0l-0.926-0.512c-0.128-0.063-0.32-0.063-0.445,0l-3.636,2.104
			c-0.128,0.063-0.223,0.224-0.223,0.383v4.214c0,0.159,0.097,0.288,0.223,0.383l3.636,2.104c0.128,0.063,0.32,0.063,0.445,0
			l3.636-2.104c0.128-0.063,0.222-0.224,0.222-0.383v-10.5c0-0.16-0.097-0.319-0.222-0.383L246.51,161.416z M246.158,172.105
			c0,0.031-0.032,0.063-0.063,0.097l-1.245,0.734c-0.032,0.031-0.063,0.031-0.098,0l-1.245-0.734
			c-0.031-0.031-0.063-0.063-0.063-0.097v-1.438c0-0.031,0.032-0.063,0.063-0.097l1.245-0.734c0.032-0.031,0.063-0.031,0.098,0
			l1.245,0.734c0.031,0.031,0.063,0.063,0.063,0.097V172.105z"/>
		<path fill="#FFFFFF" stroke="#000000" stroke-width="0.5152" stroke-miterlimit="10" d="M259.525,170.605
			c0.129-0.063,0.223-0.223,0.223-0.383v-1.02c0-0.16-0.098-0.289-0.223-0.383l-3.604-2.073c-0.129-0.063-0.32-0.063-0.446,0
			l-3.635,2.105c-0.129,0.062-0.223,0.222-0.223,0.382v4.213c0,0.16,0.097,0.32,0.223,0.383l3.604,2.073
			c0.129,0.063,0.289,0.063,0.445,0l2.202-1.21c0.063-0.032,0.129-0.098,0.129-0.191c0-0.063-0.031-0.16-0.097-0.191l-3.67-2.105
			c-0.063-0.031-0.098-0.129-0.098-0.191v-1.314c0-0.063,0.032-0.16,0.098-0.19l1.148-0.672c0.063-0.031,0.16-0.031,0.222,0
			l1.148,0.672c0.063,0.03,0.098,0.128,0.098,0.19v1.021c0,0.062,0.031,0.159,0.097,0.19s0.16,0.031,0.223,0L259.525,170.605z"/>
		<path fill="#80BD01" d="M233.683,166.711c0.128-0.062,0.32-0.062,0.445,0l3.639,2.105c0.128,0.063,0.223,0.223,0.223,0.383v4.213
			c0,0.16-0.097,0.288-0.223,0.383l-3.636,2.104c-0.128,0.063-0.32,0.063-0.445,0l-3.639-2.104
			c-0.129-0.063-0.223-0.223-0.223-0.383v-4.213c0-0.16,0.097-0.289,0.223-0.383L233.683,166.711z"/>
		<path fill="#80BD01" d="M266.609,175.932c-0.129,0-0.254-0.032-0.352-0.098l-1.148-0.671c-0.16-0.098-0.098-0.129-0.032-0.16
			c0.223-0.063,0.289-0.098,0.512-0.224c0.031,0,0.063,0,0.097,0l0.894,0.512c0.031,0.031,0.063,0.031,0.097,0l3.445-1.979
			c0.031-0.031,0.062-0.063,0.062-0.097v-3.919c0-0.03-0.031-0.063-0.062-0.097l-3.445-1.979c-0.031-0.031-0.063-0.031-0.097,0
			l-3.444,1.979c-0.032,0.031-0.063,0.063-0.063,0.097v3.956c0,0.031,0.031,0.063,0.063,0.098l0.925,0.543
			c0.511,0.254,0.828-0.032,0.828-0.352v-3.925c0-0.063,0.032-0.097,0.097-0.097h0.446c0.062,0,0.097,0.031,0.097,0.097v3.925
			c0,0.671-0.383,1.085-1.019,1.085c-0.192,0-0.352,0-0.797-0.223l-0.894-0.511c-0.223-0.129-0.351-0.383-0.351-0.638v-3.959
			c0-0.254,0.128-0.511,0.351-0.637l3.444-1.979c0.223-0.128,0.511-0.128,0.734,0l3.444,1.979c0.223,0.129,0.352,0.383,0.352,0.637
			v3.956c0,0.255-0.129,0.512-0.352,0.637l-3.444,1.979C266.831,175.9,266.737,175.932,266.609,175.932z"/>
		<path fill="#80BD01" d="M267.662,173.221c-1.499,0-1.819-0.702-1.819-1.276c0-0.063,0.031-0.098,0.097-0.098h0.445
			c0.063,0,0.098,0.031,0.098,0.098c0.063,0.445,0.254,0.671,1.179,0.671c0.734,0,1.02-0.16,1.02-0.543
			c0-0.222-0.097-0.382-1.21-0.511c-0.926-0.098-1.531-0.289-1.531-1.054c0-0.703,0.574-1.117,1.563-1.117
			c1.085,0,1.66,0.383,1.722,1.211c0,0.031,0,0.063-0.031,0.063c-0.031,0.031-0.031,0.031-0.063,0.031h-0.445
			c-0.032,0-0.098-0.031-0.098-0.063c-0.097-0.48-0.351-0.637-1.085-0.637c-0.797,0-0.894,0.288-0.894,0.48
			c0,0.254,0.097,0.319,1.179,0.479c1.054,0.128,1.563,0.352,1.563,1.085C269.353,172.776,268.748,173.221,267.662,173.221z"/>
		<path fill="#80BD01" d="M255.632,170.413c0.031,0,0.063,0,0.097,0l0.703,0.414c0.031,0,0.031,0.031,0.031,0.063v0.796
			c0,0.032-0.031,0.063-0.031,0.063l-0.703,0.414c-0.031,0-0.063,0-0.097,0l-0.703-0.414c-0.031,0-0.031-0.031-0.031-0.063v-0.796
			c0-0.032,0.031-0.063,0.031-0.063L255.632,170.413z"/>
		<g>
			<path fill="#80BD01" d="M273.118,167.735c0,0.351-0.289,0.671-0.671,0.671c-0.352,0-0.672-0.288-0.672-0.671
				s0.32-0.671,0.672-0.671C272.829,167.094,273.118,167.383,273.118,167.735z M271.906,167.735c0,0.319,0.254,0.543,0.543,0.543
				c0.32,0,0.543-0.254,0.543-0.543c0-0.32-0.254-0.543-0.543-0.543C272.161,167.192,271.906,167.446,271.906,167.735z
				 M272.224,167.383h0.254c0.097,0,0.254,0,0.254,0.191c0,0.129-0.097,0.16-0.129,0.191c0.098,0,0.098,0.063,0.129,0.16
				c0,0.063,0.031,0.159,0.031,0.191h-0.16c0-0.032-0.031-0.223-0.031-0.223c0-0.031-0.031-0.063-0.063-0.063h-0.128v0.289h-0.16
				L272.224,167.383L272.224,167.383z M272.352,167.699h0.128c0.098,0,0.129-0.063,0.129-0.097c0-0.098-0.063-0.098-0.097-0.098
				h-0.129v0.191h-0.031V167.699z"/>
		</g>
	</g>
</g>
<g>
	<g>
		<defs>
			<path id="SVGID_1_" d="M221.79,157.524l-0.388-0.129c0,0,0.049-1.962-0.659-2.1c-0.467-0.541,0.072-23.102,1.768-0.077
				c0,0-0.581,0.292-0.69,0.786C221.711,156.498,221.79,157.524,221.79,157.524L221.79,157.524z"/>
		</defs>
		<defs>
			<rect id="SVGID_2_" x="218.219" y="143.066" width="54.547" height="14.829"/>
		</defs>
		<use xlink:href="#SVGID_1_"  overflow="visible" fill="#686D27"/>
		<clipPath id="SVGID_3_">
			<use xlink:href="#SVGID_1_"  overflow="visible"/>
		</clipPath>
		<clipPath id="SVGID_4_" clip-path="url(#SVGID_3_)">
			<use xlink:href="#SVGID_2_"  overflow="visible"/>
		</clipPath>
		<g clip-path="url(#SVGID_4_)">
			<defs>
				<rect id="SVGID_5_" x="220.579" y="144.879" width="1.957" height="12.674"/>
			</defs>
			<clipPath id="SVGID_6_">
				<use xlink:href="#SVGID_5_"  overflow="visible"/>
			</clipPath>
		</g>
	</g>
	<g>
		<defs>
			<path id="SVGID_7_" d="M221.999,155.628c0,0,3.37-2.22,2.58-6.828c-0.76-3.349-2.555-4.45-2.748-4.87
				c-0.212-0.297-0.426-0.824-0.426-0.824l0.144,9.33C221.548,152.436,221.252,155.284,221.999,155.628L221.999,155.628z"/>
		</defs>
		<use xlink:href="#SVGID_7_"  overflow="visible" fill="#004513"/>
		<clipPath id="SVGID_8_">
			<use xlink:href="#SVGID_7_"  overflow="visible"/>
		</clipPath>
		<g clip-path="url(#SVGID_8_)">
			<defs>
				<rect id="SVGID_9_" x="221.252" y="143.106" width="4.117" height="12.522"/>
			</defs>
			<use xlink:href="#SVGID_9_"  overflow="visible" fill="#004513"/>
			<clipPath id="SVGID_10_">
				<use xlink:href="#SVGID_9_"  overflow="visible"/>
			</clipPath>
		</g>
	</g>
	<g>
		<defs>
			<path id="SVGID_11_" d="M221.205,155.752c0,0-3.161-2.156-2.979-5.961c0.182-3.805,2.415-5.675,2.849-6.015
				c0.281-0.3,0.293-0.415,0.315-0.711c0.197,0.424,0.164,6.321,0.185,7.012C221.656,152.761,221.426,155.245,221.205,155.752
				L221.205,155.752z"/>
		</defs>
		<defs>
			<rect id="SVGID_12_" x="218.219" y="143.066" width="54.547" height="14.829"/>
		</defs>
		<use xlink:href="#SVGID_11_"  overflow="visible" fill="#33995F"/>
		<clipPath id="SVGID_13_">
			<use xlink:href="#SVGID_11_"  overflow="visible"/>
		</clipPath>
		<clipPath id="SVGID_14_" clip-path="url(#SVGID_13_)">
			<use xlink:href="#SVGID_12_"  overflow="visible"/>
		</clipPath>
		<g clip-path="url(#SVGID_14_)">
			<defs>
				<rect id="SVGID_15_" x="218.219" y="143.046" width="3.385" height="12.736"/>
			</defs>
			<clipPath id="SVGID_16_">
				<use xlink:href="#SVGID_15_"  overflow="visible"/>
			</clipPath>
		</g>
	</g>
	<path fill="#CBC7C3" d="M259.398,154.524c0.223,0.179,0.67,0.253,1.064,0.253c0.511,0,1.011-0.095,1.501-0.536
		c0.5-0.452,0.841-1.146,0.841-2.25c0-1.063-0.405-1.925-1.235-2.429c-0.469-0.295-1.075-0.41-1.767-0.41
		c-0.203,0-0.404,0.011-0.522,0.063c-0.032,0.021-0.096,0.105-0.096,0.147c-0.021,0.189-0.021,1.63-0.021,2.481
		c0,0.873,0,2.092,0.021,2.239C259.196,154.209,259.259,154.429,259.398,154.524L259.398,154.524z M257.272,148.678
		c0.182,0,0.869,0.032,1.188,0.032c0.596,0,1.011-0.032,2.129-0.032c0.937,0,1.725,0.253,2.289,0.736
		c0.682,0.589,1.043,1.409,1.043,2.407c0,1.42-0.649,2.24-1.298,2.702c-0.649,0.484-1.491,0.758-2.694,0.758
		c-0.639,0-1.735-0.021-2.651-0.032h-0.012c-0.043-0.084,0.078-0.412,0.153-0.421c0.248-0.027,0.314-0.037,0.43-0.084
		c0.193-0.079,0.238-0.178,0.26-0.525c0.032-0.651,0.021-1.43,0.021-2.313c0-0.63,0.01-1.86-0.011-2.249
		c-0.032-0.326-0.17-0.41-0.447-0.474c-0.138-0.031-0.33-0.063-0.596-0.095C257.055,149.026,257.219,148.741,257.272,148.678
		L257.272,148.678z"/>
	<path fill="#CBC7C3" d="M266.741,149.194c-0.042,0.011-0.096,0.116-0.096,0.168c-0.011,0.379-0.021,1.367-0.021,2.051
		c0,0.021,0.031,0.052,0.053,0.052c0.138,0.011,0.479,0.021,0.766,0.021c0.404,0,0.639-0.053,0.767-0.116
		c0.341-0.168,0.5-0.536,0.5-0.936c0-0.914-0.639-1.262-1.586-1.262C267.061,149.172,266.88,149.172,266.741,149.194
		L266.741,149.194z M269.157,153.399c0-0.925-0.681-1.45-1.926-1.45c-0.053,0-0.448-0.011-0.543,0.01
		c-0.032,0.011-0.063,0.032-0.063,0.053c0,0.662-0.011,1.725,0.021,2.146c0.021,0.179,0.149,0.431,0.309,0.504
		c0.17,0.095,0.554,0.116,0.82,0.116C268.509,154.777,269.157,154.366,269.157,153.399L269.157,153.399z M264.818,148.678
		c0.096,0,0.379,0.032,1.104,0.032c0.682,0,1.235-0.021,1.896-0.021c0.819,0,1.948,0.295,1.948,1.514c0,0.6-0.426,1.084-0.979,1.314
		c-0.032,0.011-0.032,0.032,0,0.043c0.788,0.199,1.48,0.683,1.48,1.608c0,0.903-0.564,1.472-1.384,1.829
		c-0.5,0.221-1.118,0.294-1.746,0.294c-0.479,0-1.763-0.053-2.476-0.042c-0.075-0.031,0.068-0.367,0.132-0.421
		c0.17-0.01,0.301-0.022,0.483-0.074c0.255-0.063,0.285-0.146,0.317-0.524c0.021-0.326,0.021-1.493,0.021-2.324
		c0-1.135,0.011-1.902,0-2.281c-0.01-0.294-0.117-0.389-0.319-0.441c-0.159-0.031-0.426-0.063-0.638-0.095
		C264.601,149.035,264.765,148.72,264.818,148.678L264.818,148.678z"/>
	<path fill="#4C4847" d="M226.733,155.276c-0.018-0.027-0.037-0.111-0.033-0.212c0.003-0.076,0.018-0.125,0.032-0.142
		c0.201-0.032,0.296-0.053,0.409-0.083c0.188-0.047,0.259-0.148,0.271-0.39c0.031-0.566,0.033-1.63,0.021-2.378v-0.021
		c0.001-0.081,0.002-0.19-0.099-0.268c-0.147-0.098-0.332-0.178-0.564-0.247c-0.089-0.027-0.139-0.074-0.136-0.129
		c0.003-0.053,0.059-0.119,0.175-0.142c0.308-0.032,1.117-0.225,1.434-0.371c0.019,0.023,0.048,0.072,0.042,0.151
		c-0.002,0.033-0.005,0.068-0.008,0.104c-0.009,0.106-0.019,0.226-0.019,0.346c0,0.034,0.038,0.068,0.079,0.068
		c0.021,0,0.04-0.009,0.055-0.023c0.604-0.474,1.145-0.643,1.423-0.643c0.457,0,0.813,0.219,1.088,0.668
		c0.016,0.023,0.038,0.036,0.063,0.036c0.023,0,0.044-0.012,0.058-0.031c0.556-0.421,1.106-0.673,1.475-0.673
		c0.872,0,1.392,0.652,1.392,1.743c0,0.313-0.003,0.711-0.006,1.082c-0.002,0.325-0.005,0.631-0.005,0.842
		c0,0.052,0.068,0.193,0.172,0.222c0.127,0.063,0.312,0.094,0.544,0.134l0.009,0.002c0.018,0.062-0.02,0.305-0.055,0.354
		c-0.058,0-0.137-0.004-0.237-0.009c-0.181-0.01-0.429-0.021-0.718-0.021c-0.579,0-0.882,0.011-1.17,0.029
		c-0.022-0.072-0.03-0.305-0.003-0.354c0.169-0.031,0.252-0.053,0.353-0.083c0.185-0.061,0.238-0.144,0.249-0.389
		c0.004-0.174,0.038-1.704-0.022-2.067c-0.054-0.377-0.339-0.817-0.96-0.817c-0.23,0-0.603,0.096-0.958,0.364
		c-0.022,0.022-0.035,0.063-0.035,0.091l0,0.007c0.042,0.196,0.042,0.425,0.042,0.771c0,0.196-0.001,0.406-0.003,0.614
		c-0.002,0.422-0.004,0.82,0.003,1.121c0,0.205,0.124,0.254,0.224,0.294c0.054,0.012,0.097,0.022,0.14,0.032
		c0.084,0.021,0.17,0.041,0.299,0.062c0.017,0.04,0.019,0.161-0.005,0.265c-0.013,0.057-0.029,0.082-0.037,0.09
		c-0.322-0.011-0.652-0.021-1.129-0.021c-0.145,0-0.381,0.007-0.589,0.012c-0.168,0.005-0.329,0.009-0.419,0.009
		c-0.014-0.02-0.032-0.087-0.032-0.183c0-0.089,0.016-0.151,0.033-0.171c0.044-0.009,0.087-0.017,0.128-0.023
		c0.112-0.021,0.208-0.037,0.301-0.06c0.158-0.048,0.217-0.136,0.229-0.336c0.031-0.468,0.055-1.815-0.012-2.153
		c-0.113-0.542-0.421-0.816-0.917-0.816c-0.291,0-0.658,0.14-0.958,0.364c-0.05,0.037-0.088,0.131-0.088,0.217
		c0,0.16,0,0.352-0.001,0.557c-0.002,0.677-0.005,1.52,0.012,1.884c0.01,0.112,0.049,0.246,0.261,0.295
		c0.046,0.013,0.126,0.026,0.219,0.041c0.053,0.009,0.112,0.019,0.172,0.029c0.021,0.058,0.008,0.285-0.029,0.355
		c-0.092,0-0.206-0.005-0.337-0.011c-0.2-0.009-0.448-0.02-0.73-0.02c-0.333,0-0.564,0.011-0.75,0.02
		C226.948,155.271,226.841,155.276,226.733,155.276L226.733,155.276L226.733,155.276z"/>
	<path fill="#4C4847" d="M237.294,151.344c-0.193,0-0.375,0.051-0.509,0.143c-0.369,0.226-0.558,0.674-0.558,1.332
		c0,1.233,0.619,2.095,1.503,2.095c0.261,0,0.475-0.075,0.651-0.229c0.272-0.223,0.417-0.675,0.417-1.309
		C238.798,152.16,238.193,151.344,237.294,151.344L237.294,151.344L237.294,151.344z M237.464,155.37
		c-1.599,0-2.169-1.171-2.169-2.268c0-0.767,0.314-1.365,0.933-1.78c0.44-0.27,0.965-0.426,1.439-0.426
		c1.221,0,2.073,0.877,2.073,2.133c0,0.853-0.341,1.526-0.985,1.947C238.446,155.166,237.909,155.37,237.464,155.37L237.464,155.37
		L237.464,155.37z"/>
	<path fill="#4C4847" d="M253.858,151.344c-0.194,0-0.375,0.051-0.51,0.143c-0.37,0.226-0.558,0.673-0.558,1.332
		c0,1.233,0.619,2.095,1.504,2.095c0.261,0,0.474-0.075,0.651-0.229c0.272-0.222,0.416-0.674,0.416-1.308
		C255.361,152.16,254.757,151.344,253.858,151.344L253.858,151.344L253.858,151.344z M254.028,155.37c-1.6,0-2.17-1.171-2.17-2.268
		c0-0.767,0.314-1.365,0.933-1.78c0.44-0.271,0.965-0.426,1.439-0.426c1.221,0,2.073,0.877,2.073,2.133
		c0,0.854-0.34,1.526-0.985,1.947C255.009,155.166,254.473,155.37,254.028,155.37L254.028,155.37L254.028,155.37z"/>
	<path fill="#4C4847" d="M248.505,151.302c-0.493,0-0.812,0.39-0.812,0.991c0,0.607,0.274,1.316,1.046,1.316
		c0.133,0,0.373-0.059,0.492-0.19c0.179-0.164,0.296-0.504,0.296-0.863C249.528,151.771,249.145,151.302,248.505,151.302
		L248.505,151.302L248.505,151.302z M248.441,155.454c-0.185,0-0.32,0.054-0.4,0.1c-0.39,0.25-0.571,0.5-0.571,0.787
		c0,0.271,0.105,0.485,0.332,0.678c0.274,0.231,0.644,0.344,1.13,0.344c0.956,0,1.385-0.512,1.385-1.021
		c0-0.354-0.178-0.592-0.544-0.726C249.49,155.512,249.018,155.454,248.441,155.454L248.441,155.454L248.441,155.454z
		 M248.505,157.895c-0.575,0-0.988-0.121-1.342-0.394c-0.343-0.265-0.498-0.657-0.498-0.93c0-0.077,0.019-0.279,0.188-0.472
		c0.101-0.114,0.332-0.327,0.867-0.694c0.017-0.007,0.028-0.022,0.028-0.042c0-0.022-0.014-0.04-0.033-0.044
		c-0.441-0.169-0.575-0.446-0.614-0.596c-0.001-0.006-0.002-0.015-0.004-0.023c-0.013-0.06-0.025-0.114,0.055-0.172
		c0.062-0.044,0.161-0.103,0.266-0.165c0.155-0.091,0.331-0.194,0.428-0.278c0.016-0.015,0.021-0.037,0.018-0.06
		c-0.003-0.021-0.017-0.04-0.036-0.05c-0.653-0.219-0.982-0.703-0.982-1.441c0-0.476,0.22-0.906,0.604-1.181
		c0.263-0.207,0.922-0.457,1.349-0.457h0.025c0.439,0.011,0.687,0.103,1.03,0.229c0.186,0.069,0.362,0.097,0.609,0.097
		c0.364,0,0.522-0.115,0.659-0.247c0.007,0.017,0.026,0.067,0.035,0.188c0.008,0.123-0.025,0.303-0.119,0.433
		c-0.074,0.103-0.246,0.177-0.409,0.177c-0.017,0-0.033,0-0.048-0.002c-0.167-0.017-0.247-0.041-0.247-0.041l-0.042,0.014
		c-0.013,0.02-0.004,0.04,0.006,0.066c0.002,0.007,0.005,0.013,0.006,0.018c0.021,0.084,0.06,0.333,0.06,0.402
		c0,0.774-0.306,1.111-0.636,1.361c-0.315,0.237-0.683,0.38-1.098,0.424h0c-0.009,0-0.048,0.004-0.127,0.011
		c-0.051,0.004-0.115,0.01-0.124,0.01l-0.009,0.002c-0.072,0.021-0.259,0.108-0.259,0.274c0,0.138,0.085,0.309,0.489,0.339
		c0.082,0.006,0.17,0.012,0.262,0.019c0.534,0.037,1.202,0.083,1.516,0.189c0.432,0.157,0.701,0.544,0.701,1.009
		c0,0.694-0.494,1.348-1.322,1.747C249.353,157.802,248.946,157.895,248.505,157.895L248.505,157.895L248.505,157.895z"/>
	<path fill="#4C4847" d="M245.879,154.906c-0.234-0.032-0.404-0.063-0.607-0.158c-0.032-0.021-0.074-0.115-0.074-0.146
		c-0.021-0.326-0.021-1.272-0.021-1.893c0-0.506-0.085-0.946-0.298-1.263c-0.256-0.357-0.618-0.567-1.086-0.567
		c-0.415,0-0.968,0.284-1.426,0.673c-0.011,0.011-0.081,0.077-0.079-0.026c0.001-0.104,0.018-0.313,0.027-0.446
		c0.01-0.132-0.069-0.195-0.069-0.195c-0.298,0.147-1.138,0.347-1.448,0.379c-0.227,0.044-0.284,0.261-0.042,0.336l0,0
		c0,0.001,0.002,0.001,0.003,0.002c0.253,0.075,0.423,0.157,0.549,0.24c0.096,0.074,0.086,0.179,0.086,0.263
		c0.01,0.705,0.01,1.788-0.022,2.377c-0.01,0.23-0.074,0.314-0.245,0.357l0.015-0.006c-0.127,0.032-0.234,0.053-0.394,0.074
		c-0.054,0.052-0.054,0.357,0,0.421c0.106,0,0.649-0.032,1.096-0.032c0.618,0,0.937,0.032,1.097,0.032
		c0.064-0.074,0.085-0.358,0.043-0.421c-0.181-0.011-0.309-0.032-0.437-0.063c-0.17-0.042-0.213-0.126-0.223-0.315
		c-0.021-0.494-0.021-1.546-0.021-2.261c0-0.199,0.053-0.294,0.117-0.347c0.213-0.189,0.564-0.315,0.873-0.315
		c0.298,0,0.5,0.095,0.649,0.221c0.203,0.168,0.277,0.41,0.298,0.589c0.042,0.399,0.032,1.198,0.032,1.893
		c0,0.379-0.032,0.473-0.17,0.516c-0.064,0.031-0.234,0.063-0.437,0.084c-0.064,0.063-0.042,0.357,0,0.421
		c0.277,0,0.596-0.032,1.064-0.032c0.585,0,0.958,0.032,1.107,0.032C245.9,155.253,245.921,154.98,245.879,154.906L245.879,154.906z
		"/>
	<path fill="#CBC7C3" d="M271.763,154.387h0.181c0.145,0,0.201-0.05,0.201-0.183s-0.053-0.177-0.217-0.177h-0.165V154.387
		L271.763,154.387z M272.147,154.953l-0.213-0.458h-0.171v0.458h-0.125v-1.039h0.308c0.229,0,0.323,0.101,0.323,0.29
		c0,0.152-0.071,0.25-0.205,0.278l0.219,0.471H272.147L272.147,154.953z M271.946,153.685c-0.418,0-0.75,0.33-0.75,0.751
		c0,0.414,0.333,0.746,0.749,0.746c0.413,0,0.746-0.332,0.746-0.746C272.69,154.013,272.366,153.685,271.946,153.685
		L271.946,153.685z M271.944,155.256c-0.462,0-0.823-0.36-0.823-0.822c0-0.465,0.36-0.823,0.825-0.823
		c0.453,0,0.82,0.363,0.82,0.812C272.765,154.891,272.406,155.256,271.944,155.256L271.944,155.256z"/>
</g>
<text transform="matrix(1 0 0 1 215.5876 140.0051)" font-family="verdana" font-weight="bold" font-size="4.1215">Coté serveur</text>
<text transform="matrix(1 0 0 1 251.8171 182.5208)" font-family="verdana" font-weight="bold" font-size="4.1215">et plus ...</text>
<rect id="rect3341_1_" x="213.935" y="85.75" fill="none" stroke="#00859E" stroke-miterlimit="10" width="61.675" height="49.027"/>
<g>
	<path fill="#131B28" d="M240.77,98.71L240.77,98.71l-0.326,1.155L240.77,98.71L240.77,98.71z"/>
	<path fill="#131B28" d="M242.448,101.219l-0.359-0.002L242.448,101.219z"/>
	<path fill="#131B28" d="M242.355,102.946L242.355,102.946l-2.153,0.007L242.355,102.946L242.355,102.946z"/>
	<path fill="#131B28" d="M242.807,101.221l-0.36-0.001L242.807,101.221z"/>
	<path fill="#131B28" d="M242.544,102.799l0.375-1.431L242.544,102.799L242.544,102.799L242.544,102.799z"/>
	<path fill="#131B28" d="M250.472,96.211l-0.699,3.285L250.472,96.211z"/>
	<path fill="#131B28" d="M248.676,96.211l-0.53,2.454L248.676,96.211L248.676,96.211z"/>
	<path fill="#131B28" d="M250.352,96.063h-1.495c-0.083,0-0.165,0.067-0.183,0.147l-0.53,2.455l-0.531,2.454
		c-0.017,0.081-0.099,0.147-0.183,0.147h-0.906h-0.151c-1.046,0-0.925-0.724-0.711-1.715c0.002-0.01,0.004-0.02,0.006-0.03
		l0.024-0.125c0.001-0.008,0.002-0.016,0.004-0.023l0.048-0.254l0.051-0.272c0.016-0.082,0.039-0.202,0.055-0.278l0.241-1.179
		l0.241-1.178c0.016-0.081-0.038-0.148-0.121-0.148h-1.533c-0.083,0-0.165,0.067-0.182,0.148l-0.33,1.565l-0.33,1.564
		c0,0.001,0,0.001,0,0.002l-0.031,0.146c-0.379,1.734-0.279,3.388,1.786,3.439c0.034,0.001,0.06,0.001,0.06,0.001h3.24
		c0.083,0,0.165-0.066,0.183-0.147l0.699-3.284l0.699-3.285C250.489,96.13,250.435,96.063,250.352,96.063L250.352,96.063z"/>
	<path fill="#131B28" d="M256.313,101.283c0.083,0,0.138,0.066,0.121,0.147l-0.146,0.709"/>
	<path fill="#131B28" d="M256.143,102.849l0.146-0.709L256.143,102.849L256.143,102.849L256.143,102.849z"/>
	<path fill="#131B28" d="M255.962,102.999L255.962,102.999c-0.439,0.003-1.761,0.014-2.754,0.014
		C254.417,103.012,255.961,102.999,255.962,102.999L255.962,102.999z"/>
	<path fill="#131B28" d="M252.317,100.37c-0.001-0.078,0.087-0.211,0.17-0.211l-0.187-0.003
		C252.216,101.001,252.317,100.37,252.317,100.37L252.317,100.37z"/>
	<path fill="#131B28" d="M253.344,103.012c-0.01,0-0.02,0-0.029,0C253.325,103.012,253.335,103.012,253.344,103.012z"/>
	<path fill="#131B28" d="M256.313,101.283c0.083,0,0.138,0.066,0.121,0.147l-0.146,0.709l-0.023,0.116"/>
	<path fill="#131B28" d="M254.052,103.01h-0.005H254.052z"/>
	<path fill="#131B28" d="M253.685,103.012h-0.021H253.685z"/>
	<path fill="#131B28" d="M253.573,103.012c-0.012,0-0.023,0-0.036,0C253.55,103.012,253.561,103.012,253.573,103.012z"/>
	<path fill="#131B28" d="M253.459,103.012h-0.031H253.459z"/>
	<path fill="#131B28" d="M253.663,103.012c-0.03,0-0.061,0-0.09,0C253.603,103.012,253.633,103.012,253.663,103.012z"/>
	<path fill="#131B28" d="M254.046,103.01c-0.122,0-0.243,0.001-0.361,0.001C253.803,103.011,253.925,103.01,254.046,103.01z"/>
	<path fill="#131B28" d="M255.962,102.998L255.962,102.998c-0.322,0.002-1.118,0.008-1.911,0.012
		C254.844,103.007,255.64,103.001,255.962,102.998z"/>
	<path fill="#131B28" d="M256.143,102.85l0.122-0.594L256.143,102.85C256.143,102.85,256.143,102.85,256.143,102.85L256.143,102.85z
		"/>
	<path fill="#131B28" d="M253.537,103.012h-0.078H253.537z"/>
	<path fill="#131B28" d="M253.315,103.012h-0.106H253.315z"/>
	<path fill="#131B28" d="M253.428,103.012h-0.084H253.428z"/>
	<path fill="#131B28" d="M231.572,100.387l0.232-1.029l-0.265,1.176l-0.255,1.198l0.223-1.05
		C231.524,100.601,231.553,100.469,231.572,100.387L231.572,100.387z"/>
	<path fill="#131B28" d="M234.35,96.046h-1.641c-0.083,0-0.166,0.066-0.185,0.147l-0.156,0.686l-0.156,0.688
		c-0.018,0.081,0.035,0.147,0.118,0.147h1.653c0.083,0,0.166-0.066,0.183-0.147l0.15-0.687l0.15-0.686l0,0
		C234.486,96.112,234.432,96.046,234.35,96.046L234.35,96.046z"/>
	<path fill="#131B28" d="M233.992,98.33L233.992,98.33l-0.481,2.227L233.992,98.33z"/>
	<path fill="#131B28" d="M229.226,105.707c0,0,0.827,0.011,1.353,0.011C230.179,105.718,229.52,105.711,229.226,105.707
		C229.225,105.707,229.225,105.707,229.226,105.707L229.226,105.707z"/>
	<path fill="#131B28" d="M232.036,98.33l-0.233,1.029L232.036,98.33z"/>
	<path fill="#131B28" d="M233.874,98.182h-1.654c-0.083,0-0.166,0.066-0.184,0.147l-0.232,1.029l-0.232,1.028
		c-0.018,0.081-0.048,0.214-0.065,0.295l-0.223,1.05l-0.223,1.05c-0.017,0.082-0.053,0.212-0.079,0.291c0,0-0.31,0.919-0.828,0.909
		c-0.022,0-0.044,0-0.065-0.001c-0.251-0.005-0.45-0.008-0.45-0.008h0c-0.083-0.001-0.166,0.063-0.185,0.144l-0.172,0.721
		l-0.171,0.721c-0.02,0.08,0.033,0.146,0.116,0.148c0.294,0.003,0.954,0.011,1.353,0.011c1.298,0,1.981-0.719,2.419-2.788
		l0.514-2.374l0.481-2.227C234.01,98.249,233.956,98.182,233.874,98.182L233.874,98.182z"/>
	<path fill="#131B28" d="M257.366,102.927c-0.083,0-0.137-0.066-0.119-0.147l1.244-5.827"/>
	<path fill="#131B28" d="M259.095,102.78l0.503-2.487L259.095,102.78z"/>
	<path fill="#131B28" d="M257.265,102.854c-0.01-0.041-0.004-0.14,0.013-0.222l0.59-2.766l-0.622,2.913
		c-0.018,0.082,0.036,0.147,0.119,0.147h0.151C257.434,102.927,257.275,102.895,257.265,102.854L257.265,102.854z"/>
	<path fill="#131B28" d="M258.998,102.895c-0.045,0.018-0.151,0.033-0.233,0.033h0.151c0.083,0,0.165-0.066,0.181-0.148l0.03-0.147
		C259.109,102.713,259.043,102.876,258.998,102.895L258.998,102.895z"/>
	<path fill="#131B28" d="M259.348,101.537l0.222-1.098c0,0,0,0.001,0,0.002L259.348,101.537L259.348,101.537z"/>
	<path fill="#131B28" d="M264.257,97.343l0.068,0.283c0.018,0.081-0.034,0.147-0.117,0.147"/>
	<path fill="#131B28" d="M259.126,102.632l0.221-1.095L259.126,102.632z"/>
	<path fill="#131B28" d="M264.188,97.053l0.067,0.29L264.188,97.053z"/>
	<path fill="#131B28" d="M259.57,100.439c0.017-0.081,0.044-0.213,0.061-0.293l0.237-1.111l-0.269,1.259L259.57,100.439
		L259.57,100.439z"/>
	<path fill="#131B28" d="M258.512,96.857c-0.016,0.079-0.038,0.178-0.052,0.243l-0.591,2.767l0.623-2.914L258.512,96.857
		L258.512,96.857z"/>
	<path fill="#131B28" d="M264.324,97.626l-0.069-0.283l-0.067-0.29l-0.034-0.146c-0.135-0.522-0.528-0.823-1.385-0.823l-1.333-0.001
		l-1.228-0.001h-0.105h-1.276c-0.083,0-0.165,0.066-0.182,0.147l0,0l-0.061,0.289l-0.072,0.341l-0.021,0.096l-0.622,2.914
		l-0.59,2.766c-0.018,0.082-0.023,0.181-0.014,0.222c0.01,0.041,0.169,0.073,0.252,0.073h1.247c0.083,0,0.188-0.015,0.232-0.033
		c0.046-0.018,0.112-0.182,0.129-0.263l0.221-1.095l0.222-1.096c0.001-0.001,0.001-0.002,0.001-0.002l0.029-0.146l0.269-1.259
		l0.237-1.111c0.018-0.081,0.1-0.147,0.182-0.147l3.922-0.002C264.291,97.773,264.344,97.707,264.324,97.626L264.324,97.626z"/>
	<path fill="#131B28" d="M269.372,95.066c-0.083,0-0.219,0.001-0.302,0.001h-1.255c-0.083,0-0.19,0.056-0.236,0.125l-2.775,4.066
		c-0.047,0.068-0.101,0.059-0.119-0.022l-0.204-0.896c-0.019-0.081-0.102-0.147-0.184-0.147h-1.784c-0.083,0-0.133,0.065-0.11,0.145
		l0.8,2.801c0.023,0.08,0.024,0.211,0.004,0.291l-0.348,1.356c-0.021,0.081,0.03,0.146,0.114,0.146h1.763
		c0.083,0,0.168-0.066,0.188-0.146l0.348-1.356c0.021-0.08,0.079-0.2,0.129-0.267l4.506-5.98c0.049-0.066,0.022-0.12-0.061-0.119
		L269.372,95.066L269.372,95.066z"/>
	<path fill="#131B28" d="M255.198,98.574v-0.002c-0.01,0.09-0.093,0.156-0.176,0.156h-2.262c-0.078,0-0.117-0.053-0.106-0.119
		c0.001-0.002,0.001-0.004,0.002-0.005c0,0-0.001,0-0.001,0c0-0.003,0-0.005,0.001-0.008c0,0,0.004-0.016,0.011-0.038
		c0.215-0.575,0.656-0.952,1.483-0.952C255.079,97.607,255.261,98.062,255.198,98.574L255.198,98.574z M254.534,95.963
		c-2.904,0-3.592,1.763-3.978,3.541c-0.385,1.813-0.353,3.508,2.652,3.508h0.106c0.01,0,0.02,0,0.029,0h0.083h0.031h0.079
		c0.012,0,0.023,0,0.036,0c0.03,0,0.06,0,0.09,0h0.021c0.119,0,0.239-0.001,0.36-0.001h0.006c0.793-0.003,1.589-0.01,1.912-0.012
		c0.083-0.001,0.163-0.068,0.18-0.148l0.122-0.595l0.023-0.116l0.146-0.709c0.017-0.082-0.038-0.147-0.121-0.147h-2.701
		c-1.074,0-1.393-0.286-1.276-1.125h4.318l0,0c0.001,0,0.002,0,0.003,0c0.068-0.001,0.132-0.048,0.157-0.111
		c0.004-0.012,0.009-0.025,0.011-0.038h0C257.464,97.592,257.281,95.963,254.534,95.963L254.534,95.963z"/>
	<path fill="#131B28" d="M240.811,98.564l-0.041,0.145c0,0,0,0,0,0l-0.326,1.155l-0.326,1.155c-0.022,0.08-0.108,0.146-0.192,0.146
		H238.2c-1.308,0-1.627-1.024-1.308-2.534c0.318-1.545,0.943-2.505,2.232-2.603C240.884,95.897,241.236,97.135,240.811,98.564
		L240.811,98.564z M241.994,101.076c0,0,0.814-1.976,0.999-3.117c0.252-1.527-0.513-3.742-3.467-3.742
		c-2.937,0-4.212,2.115-4.699,4.414c-0.487,2.315,0.151,4.346,3.071,4.33l2.304-0.008l2.154-0.007
		c0.083-0.001,0.167-0.067,0.188-0.147l0.375-1.431c0.021-0.081-0.029-0.146-0.112-0.147l-0.36-0.002l-0.359-0.002
		c-0.071-0.001-0.111-0.047-0.103-0.107C241.987,101.099,241.99,101.088,241.994,101.076L241.994,101.076z"/>
	<path fill="#131B28" d="M256.534,99.754c0,0.055-0.044,0.099-0.099,0.099c-0.054,0-0.099-0.044-0.099-0.099
		s0.044-0.099,0.099-0.099C256.49,99.656,256.534,99.699,256.534,99.754z"/>
	<path fill="#0868AC" d="M219.567,97.186c-0.811,1.166-0.71,2.682-0.091,3.92c0.015,0.03,0.03,0.059,0.045,0.088
		c0.01,0.019,0.019,0.038,0.029,0.056c0.006,0.011,0.012,0.021,0.019,0.032c0.011,0.02,0.021,0.039,0.032,0.058
		c0.02,0.034,0.039,0.068,0.06,0.101c0.011,0.019,0.021,0.038,0.034,0.056c0.022,0.037,0.045,0.072,0.068,0.108
		c0.009,0.015,0.019,0.03,0.029,0.045c0.033,0.048,0.065,0.096,0.1,0.143c0.001,0.001,0.001,0.003,0.003,0.004
		c0.005,0.007,0.011,0.015,0.017,0.022c0.029,0.041,0.06,0.081,0.091,0.121c0.011,0.014,0.023,0.029,0.034,0.043
		c0.027,0.034,0.055,0.069,0.083,0.103c0.011,0.013,0.022,0.025,0.033,0.038c0.038,0.045,0.077,0.09,0.117,0.133
		c0,0.001,0.001,0.002,0.002,0.002c0.001,0.002,0.003,0.003,0.005,0.005c0.039,0.042,0.079,0.083,0.118,0.125
		c0.013,0.013,0.025,0.025,0.039,0.039c0.031,0.031,0.062,0.062,0.094,0.093c0.013,0.012,0.025,0.025,0.039,0.037
		c0.042,0.04,0.085,0.08,0.129,0.118c0.001,0.001,0.001,0.001,0.002,0.001c0.007,0.007,0.015,0.013,0.022,0.02
		c0.039,0.034,0.079,0.067,0.118,0.1c0.016,0.013,0.032,0.026,0.048,0.039c0.033,0.026,0.065,0.051,0.099,0.076
		c0.018,0.014,0.035,0.027,0.052,0.04c0.037,0.027,0.073,0.053,0.111,0.079c0.013,0.01,0.026,0.02,0.04,0.029
		c0.004,0.002,0.008,0.005,0.011,0.008c0.035,0.024,0.071,0.047,0.107,0.07c0.016,0.011,0.031,0.021,0.046,0.031
		c0.055,0.035,0.111,0.069,0.167,0.103c0.015,0.008,0.031,0.017,0.046,0.025c0.042,0.024,0.084,0.048,0.126,0.071
		c0.023,0.013,0.046,0.024,0.069,0.036c0.03,0.016,0.06,0.031,0.09,0.047c0.007,0.003,0.014,0.006,0.021,0.01
		c0.012,0.006,0.024,0.012,0.036,0.018c0.047,0.022,0.095,0.044,0.143,0.066c0.01,0.004,0.021,0.009,0.031,0.014
		c0.055,0.023,0.11,0.046,0.166,0.069c0.014,0.006,0.027,0.011,0.041,0.016c0.052,0.02,0.104,0.04,0.157,0.058
		c0.006,0.002,0.013,0.004,0.02,0.007c0.058,0.02,0.116,0.039,0.175,0.058c0.014,0.004,0.029,0.008,0.042,0.012
		c0.06,0.018,0.119,0.04,0.181,0.051c3.922,0.715,5.061-2.356,5.061-2.356c-0.957,1.247-2.655,1.575-4.265,1.209
		c-0.061-0.015-0.12-0.033-0.18-0.05c-0.015-0.005-0.03-0.01-0.045-0.015c-0.058-0.017-0.115-0.036-0.172-0.056
		c-0.008-0.003-0.016-0.005-0.024-0.009c-0.051-0.018-0.102-0.037-0.152-0.057c-0.015-0.005-0.028-0.011-0.043-0.017
		c-0.055-0.021-0.11-0.044-0.165-0.068c-0.011-0.005-0.022-0.01-0.033-0.014c-0.046-0.021-0.093-0.042-0.139-0.065
		c-0.013-0.006-0.026-0.012-0.04-0.02c-0.037-0.017-0.072-0.036-0.107-0.054c-0.024-0.013-0.049-0.024-0.072-0.038
		c-0.043-0.023-0.086-0.047-0.129-0.072c-0.014-0.008-0.029-0.016-0.043-0.024c-0.056-0.033-0.112-0.067-0.167-0.103
		c-0.015-0.01-0.03-0.02-0.045-0.03c-0.04-0.025-0.08-0.052-0.12-0.079c-0.013-0.009-0.025-0.019-0.039-0.027
		c-0.038-0.027-0.075-0.054-0.112-0.082c-0.017-0.012-0.034-0.025-0.05-0.038c-0.034-0.026-0.068-0.052-0.102-0.08
		c-0.016-0.012-0.03-0.024-0.045-0.036c-0.043-0.035-0.085-0.071-0.127-0.107c-0.004-0.004-0.008-0.008-0.013-0.012
		c-0.045-0.04-0.089-0.08-0.133-0.121c-0.013-0.012-0.025-0.024-0.038-0.036c-0.033-0.031-0.064-0.062-0.096-0.094
		c-0.013-0.012-0.025-0.025-0.038-0.037c-0.04-0.041-0.079-0.083-0.117-0.124c-0.002-0.002-0.004-0.004-0.006-0.007
		c-0.041-0.044-0.08-0.089-0.12-0.136c-0.01-0.012-0.02-0.024-0.031-0.037c-0.029-0.035-0.057-0.07-0.085-0.106
		c-0.01-0.013-0.021-0.026-0.032-0.039c-0.033-0.044-0.066-0.087-0.099-0.132c-0.894-1.219-1.215-2.9-0.5-4.28"/>
	<path fill="#0868AC" d="M222.084,96.203c-0.587,0.844-0.555,1.975-0.097,2.867c0.076,0.15,0.163,0.294,0.259,0.433
		c0.088,0.126,0.185,0.276,0.302,0.377c0.042,0.047,0.086,0.092,0.132,0.137c0.012,0.012,0.023,0.023,0.035,0.034
		c0.044,0.042,0.088,0.084,0.134,0.125c0.002,0.001,0.003,0.003,0.005,0.005c0,0,0.001,0,0.002,0.001
		c0.05,0.044,0.103,0.087,0.156,0.13c0.012,0.009,0.024,0.018,0.036,0.027c0.053,0.041,0.108,0.082,0.165,0.12
		c0.001,0.001,0.003,0.002,0.004,0.003c0.024,0.017,0.05,0.033,0.075,0.049c0.012,0.008,0.023,0.016,0.036,0.023
		c0.04,0.026,0.081,0.051,0.122,0.075c0.006,0.003,0.012,0.007,0.018,0.01c0.035,0.02,0.071,0.04,0.107,0.06
		c0.013,0.007,0.025,0.014,0.038,0.021c0.025,0.013,0.05,0.026,0.076,0.039c0.003,0.002,0.007,0.004,0.011,0.005
		c0.051,0.025,0.104,0.05,0.157,0.073c0.012,0.005,0.023,0.009,0.035,0.014c0.042,0.019,0.085,0.037,0.128,0.053
		c0.018,0.007,0.037,0.014,0.055,0.02c0.039,0.015,0.079,0.028,0.118,0.042c0.018,0.005,0.035,0.011,0.053,0.017
		c0.057,0.018,0.112,0.04,0.171,0.05c3.028,0.502,3.728-1.83,3.728-1.83c-0.63,0.908-1.851,1.341-3.153,1.003
		c-0.058-0.015-0.115-0.032-0.171-0.05c-0.018-0.005-0.035-0.011-0.052-0.017c-0.041-0.013-0.08-0.027-0.12-0.042
		c-0.018-0.006-0.036-0.013-0.054-0.02c-0.044-0.017-0.087-0.034-0.129-0.052c-0.012-0.005-0.023-0.01-0.035-0.015
		c-0.054-0.023-0.106-0.048-0.158-0.074c-0.027-0.013-0.053-0.027-0.079-0.041c-0.016-0.007-0.03-0.016-0.046-0.023
		c-0.034-0.018-0.067-0.037-0.101-0.057c-0.008-0.004-0.016-0.009-0.024-0.013c-0.04-0.024-0.081-0.049-0.121-0.074
		c-0.012-0.008-0.024-0.016-0.037-0.024c-0.026-0.017-0.053-0.035-0.079-0.052c-0.056-0.039-0.11-0.079-0.164-0.12
		c-0.012-0.01-0.024-0.019-0.037-0.029c-0.57-0.451-1.022-1.065-1.237-1.763c-0.225-0.723-0.177-1.536,0.213-2.194"/>
	<path fill="#0868AC" d="M224.201,95.47c-0.346,0.509-0.379,1.141-0.14,1.703c0.253,0.597,0.771,1.064,1.376,1.286
		c0.025,0.01,0.05,0.018,0.075,0.026c0.012,0.003,0.022,0.007,0.034,0.01c0.036,0.012,0.071,0.024,0.107,0.031
		c1.672,0.323,2.126-0.858,2.247-1.032c-0.397,0.572-1.065,0.709-1.884,0.51c-0.065-0.016-0.136-0.039-0.198-0.061
		c-0.08-0.028-0.159-0.061-0.236-0.098c-0.145-0.07-0.284-0.155-0.413-0.252c-0.733-0.556-1.188-1.617-0.709-2.481"/>
	<path fill="#0868AC" d="M243.033,105.381l-0.482,1.097h-0.532l0.043-0.997l-0.392,0.997h-0.515l-0.013-1.097l0.056-0.271h0.365
		l-0.07,1.085l0.405-1.085h0.509l-0.037,1.098l0.402-1.098h0.317L243.033,105.381L243.033,105.381z"/>
	<path fill="#0868AC" d="M243.873,105.705c0.047-0.214,0.034-0.254-0.077-0.254h-0.167l-0.107,0.502l-0.164,0.524h-0.312l0.254-1.19
		l0.038-0.175h0.284l0.037,0.081c0,0,0.164-0.097,0.324-0.097c0.342,0,0.315,0.257,0.241,0.609H243.873L243.873,105.705z"/>
	<path fill="#0868AC" d="M244.884,104.939c-0.137,0-0.224-0.04-0.191-0.208c0.038-0.167,0.145-0.208,0.278-0.208
		c0.134,0,0.225,0.04,0.188,0.208C245.125,104.895,245.018,104.939,244.884,104.939L244.884,104.939z M244.737,106.478h-0.308
		l0.06-0.535l0.107-0.495l-0.214-0.047l0.06-0.291h0.586L244.737,106.478L244.737,106.478z"/>
	<path fill="#0868AC" d="M246.072,105.4l-0.385,0.047l-0.111,0.521c-0.03,0.144-0.03,0.184,0.098,0.184h0.257l-0.053,0.274
		c0,0-0.235,0.07-0.335,0.07c-0.395,0-0.392-0.218-0.321-0.542l0.106-0.512l-0.214-0.046l0.064-0.292h0.224l0.127-0.345h0.305
		l-0.074,0.345h0.375L246.072,105.4L246.072,105.4z"/>
	<path fill="#0868AC" d="M246.872,105.417c-0.181,0-0.274,0.094-0.311,0.261l0.515-0.043
		C247.099,105.521,247.076,105.417,246.872,105.417L246.872,105.417z M246.51,105.926c-0.023,0.167,0.04,0.224,0.254,0.224h0.539
		l-0.053,0.254c0,0-0.325,0.09-0.566,0.09c-0.599,0-0.605-0.338-0.529-0.7c0.077-0.354,0.214-0.706,0.793-0.706
		c0.559,0,0.586,0.338,0.449,0.837H246.51L246.51,105.926z"/>
	<path fill="#0868AC" d="M248.625,106.478h-0.308l0.061-0.535l0.218-1.017l-0.214-0.05l0.063-0.292h0.586L248.625,106.478
		L248.625,106.478z"/>
	<path fill="#0868AC" d="M249.737,105.417c-0.181,0-0.274,0.094-0.311,0.261l0.516-0.043
		C249.965,105.521,249.942,105.417,249.737,105.417L249.737,105.417z M249.376,105.926c-0.024,0.167,0.04,0.224,0.254,0.224h0.538
		l-0.054,0.254c0,0-0.324,0.09-0.565,0.09c-0.599,0-0.605-0.338-0.528-0.7c0.077-0.354,0.214-0.706,0.793-0.706
		c0.559,0,0.585,0.338,0.449,0.837H249.376L249.376,105.926z"/>
	<path fill="#0868AC" d="M251.674,105.434c0,0-0.391,0.003-0.498,0.003c-0.228,0-0.251,0.07-0.268,0.144l-0.013,0.067l0.724,0.053
		c0,0,0.002,0.231-0.028,0.361c-0.043,0.218-0.268,0.438-0.672,0.438c-0.201,0-0.525-0.077-0.525-0.077l0.057-0.265h0.499
		c0.221,0,0.251-0.061,0.265-0.121l0.017-0.086l-0.71-0.054c0,0-0.026-0.177,0.01-0.354c0.054-0.241,0.274-0.448,0.68-0.448
		c0.2,0,0.525,0.073,0.525,0.073L251.674,105.434L251.674,105.434z"/>
	<path fill="#0868AC" d="M253.02,105.434c0,0-0.391,0.003-0.499,0.003c-0.228,0-0.251,0.07-0.268,0.144l-0.013,0.067l0.723,0.053
		c0,0,0.003,0.231-0.027,0.361c-0.044,0.218-0.268,0.438-0.673,0.438c-0.201,0-0.525-0.077-0.525-0.077l0.057-0.265h0.499
		c0.221,0,0.251-0.061,0.265-0.121l0.017-0.086l-0.71-0.054c0,0-0.027-0.177,0.01-0.354c0.054-0.241,0.274-0.448,0.679-0.448
		c0.201,0,0.526,0.073,0.526,0.073L253.02,105.434L253.02,105.434z"/>
	<path fill="#0868AC" d="M253.442,106.696h-0.268l0.01-0.201c-0.098-0.006-0.147-0.077-0.125-0.194
		c0.037-0.167,0.141-0.208,0.278-0.208c0.134,0,0.224,0.04,0.188,0.208L253.442,106.696L253.442,106.696z"/>
	<path fill="#0868AC" d="M255.232,105.448c-0.201,0-0.271,0.121-0.318,0.341c-0.046,0.221-0.034,0.352,0.167,0.352h0.278
		l0.154-0.693H255.232z M255.69,106.301l-0.037,0.177l-0.28-0.003l-0.041-0.087c0,0-0.248,0.107-0.415,0.107
		c-0.429,0-0.449-0.351-0.372-0.706c0.076-0.361,0.244-0.703,0.669-0.703c0.154,0,0.361,0.077,0.361,0.077l0.171-0.579h0.308
		L255.69,106.301L255.69,106.301z"/>
	<path fill="#0868AC" d="M256.798,105.434c-0.261,0-0.345,0.147-0.391,0.361c-0.044,0.218-0.023,0.365,0.234,0.365
		c0.268,0,0.348-0.144,0.395-0.365C257.083,105.588,257.07,105.434,256.798,105.434L256.798,105.434z M256.571,106.498
		c-0.552,0-0.596-0.345-0.523-0.703c0.077-0.358,0.271-0.699,0.824-0.699c0.548,0,0.599,0.341,0.521,0.699
		C257.317,106.16,257.123,106.498,256.571,106.498z"/>
	<path fill="#0868AC" d="M259.704,106.478l0.061-0.529l0.03-0.151c0.043-0.2,0.07-0.348-0.141-0.348h-0.164
		c0.007,0.104-0.013,0.221-0.04,0.345l-0.144,0.683h-0.311l0.06-0.529l0.03-0.151c0.043-0.2,0.07-0.348-0.141-0.348h-0.134
		l-0.221,1.027h-0.358l0.291-1.369h0.281l0.043,0.084c0,0,0.191-0.101,0.344-0.101c0.118,0,0.205,0.054,0.235,0.121
		c0.067-0.037,0.258-0.121,0.395-0.121c0.428,0,0.415,0.348,0.338,0.703l-0.144,0.683H259.704L259.704,106.478z"/>
	<path fill="#0868AC" d="M261.126,105.434c-0.261,0-0.345,0.147-0.392,0.361c-0.043,0.218-0.023,0.365,0.235,0.365
		c0.268,0,0.348-0.144,0.395-0.365C261.41,105.588,261.397,105.434,261.126,105.434z M260.899,106.498
		c-0.553,0-0.596-0.345-0.522-0.703c0.077-0.358,0.271-0.699,0.823-0.699c0.549,0,0.6,0.341,0.522,0.699
		C261.645,106.16,261.451,106.498,260.899,106.498z"/>
	<path fill="#0868AC" d="M262.652,105.705c0.046-0.214,0.033-0.254-0.077-0.254h-0.168l-0.108,0.502l-0.164,0.524h-0.311l0.255-1.19
		l0.037-0.175h0.284l0.038,0.081c0,0,0.164-0.097,0.325-0.097c0.341,0,0.314,0.257,0.241,0.609H262.652L262.652,105.705z"/>
	<path fill="#0868AC" d="M263.85,105.417c-0.18,0-0.275,0.094-0.311,0.261l0.515-0.043
		C264.079,105.521,264.054,105.417,263.85,105.417L263.85,105.417z M263.489,105.926c-0.023,0.167,0.041,0.224,0.255,0.224h0.538
		l-0.053,0.254c0,0-0.325,0.09-0.565,0.09c-0.6,0-0.606-0.338-0.529-0.7c0.077-0.354,0.214-0.706,0.793-0.706
		c0.559,0,0.586,0.338,0.45,0.837H263.489L263.489,105.926z"/>
	<path fill="#0868AC" d="M264.677,106.498c-0.14,0-0.228-0.04-0.19-0.204c0.032-0.168,0.137-0.208,0.278-0.208
		c0.131,0,0.22,0.04,0.187,0.208C264.914,106.455,264.807,106.498,264.677,106.498z"/>
</g>
<text transform="matrix(1 0 0 1 215.5876 91.1262)" font-family="verdana" font-weight="bold" font-size="4.1215">Coté client</text>
<text transform="matrix(1 0 0 1 251.8171 133.0627)" font-family="verdana" font-weight="bold" font-size="4.1215">et plus ...</text>
<text transform="matrix(1 0 0 1 222.1003 114.8855)"><tspan x="0" y="0" font-family="arial" font-weight="bold" font-size="4.1215">underscore, livereload</tspan><tspan x="4.35" y="4.946" font-family="arial" font-weight="bold" font-size="4.1215">blaze, spacebars, </tspan><tspan x="10.314" y="9.892" font-family="arial" font-weight="bold" font-size="4.1215">minimongo,</tspan></text>
<rect id="rect3341_2_" x="191.757" y="85.75" fill="none" stroke="#E52D62" stroke-miterlimit="10" width="21.035" height="99.086"/>
<text transform="matrix(4.489659e-011 -1 1 4.489659e-011 204.3875 181.2864)" font-family="courier" font-weight="bold" font-size="5.6671">Outils en ligne de commande</text>
<rect id="rect3341_3_" x="161.133" y="83.947" fill="none" stroke="#000000" stroke-width="0.4963" stroke-miterlimit="10" width="222.205" height="103.372"/>
<g>
	<g>
		<g transform="translate(303.542858, 0.000000)">
			<path fill="#DF4F4F" d="M-138.672,125.858l21.837-20.616c0,0,0.496-0.703-0.083-1.24s-1.156-0.124-1.156-0.124L-138.672,125.858
				L-138.672,125.858z"/>
			<path fill="#DF4F4F" d="M-136.608,119.33l16.925-15.699c0,0,0.496-0.703-0.083-1.24s-1.156-0.124-1.156-0.124L-136.608,119.33
				L-136.608,119.33z"/>
			<path fill="#DF4F4F" d="M-132.191,123.916l16.925-15.7c0,0,0.496-0.702-0.083-1.239c-0.578-0.537-1.156-0.124-1.156-0.124
				L-132.191,123.916L-132.191,123.916z"/>
			<path fill="#DF4F4F" d="M-134.833,113.812l11.824-10.969c0,0,0.347-0.491-0.058-0.866c-0.403-0.375-0.807-0.086-0.807-0.086
				L-134.833,113.812L-134.833,113.812z"/>
			<path fill="#DF4F4F" d="M-127.072,122.406l11.824-10.968c0,0,0.346-0.491-0.058-0.866c-0.403-0.375-0.807-0.086-0.807-0.086
				L-127.072,122.406L-127.072,122.406z"/>
			<path fill="#DF4F4F" d="M-132.273,108.176l5.375-4.971c0,0,0.162-0.243-0.027-0.428c-0.189-0.186-0.378-0.043-0.378-0.043
				L-132.273,108.176L-132.273,108.176z"/>
			<path fill="#DF4F4F" d="M-121.623,119.661l5.376-4.972c0,0,0.162-0.243-0.027-0.428c-0.189-0.186-0.378-0.043-0.378-0.043
				L-121.623,119.661L-121.623,119.661z"/>
		</g>
		<g transform="translate(0.000000, 44.184078)">
			<path fill="#26262C" enable-background="new    " d="M173.713,54.308h14.496v-3.279h-4.676v-2.46l4.676-3.163v-3.748
				l-5.026,3.513c0,0-1.233-3.12-4.579-3.12c-4.723,0-4.89,4.292-4.89,4.292L173.713,54.308L173.713,54.308z"/>
			<path fill="#26262C" d="M173.714,90.617h14.495v-11.01h-2.805v7.73h-3.04v-6.676h-2.806v6.676h-3.042v-7.73h-2.803V90.617
				L173.714,90.617z"/>
			<path fill="#26262C" d="M173.714,106.546h2.805v-4.334h11.689v-3.279h-11.689v-4.333h-2.805V106.546L173.714,106.546z"/>
			<path fill="#26262C" d="M173.714,121.538h14.495v-11.01h-2.805v7.73h-3.04v-6.677h-2.806v6.677h-3.042v-7.73h-2.803V121.538
				L173.714,121.538z"/>
			<path fill="#26262C" d="M173.714,140.044h14.495v-3.278h-9.118l5.845-3.981l-5.845-3.984h9.118v-3.28h-14.495v3.28l5.961,3.984
				l-5.961,3.981V140.044L173.714,140.044z"/>
			<g>
				<path fill="#FFFFFF" enable-background="new    " d="M176.465,50.898h4.208v-4.217c0,0,0-1.612-2.104-1.612
					c-2.184,0-2.104,1.963-2.104,1.963V50.898L176.465,50.898z"/>
			</g>
		</g>
	</g>
</g>
<rect id="rect3341_4_" x="276.64" y="85.834" fill="none" stroke="#1A296F" stroke-miterlimit="10" width="104.147" height="99.002"/>
<text transform="matrix(1 0 0 1 286.4319 136.3235)" font-family="verdana" font-weight="bold" font-size="10.8189">APPLICATION</text>
<g>
	<rect x="310.727" y="90.947" fill="#F7DF1E" width="31.499" height="31.498"/>
	<path d="M331.886,115.555c0.634,1.036,1.46,1.797,2.92,1.797c1.227,0,2.009-0.614,2.009-1.46c0-1.015-0.805-1.374-2.155-1.965
		l-0.739-0.317c-2.137-0.91-3.555-2.05-3.555-4.46c0-2.22,1.691-3.91,4.335-3.91c1.881,0,3.235,0.655,4.209,2.371l-2.305,1.479
		c-0.508-0.909-1.055-1.269-1.905-1.269c-0.868,0-1.417,0.551-1.417,1.269c0,0.888,0.55,1.248,1.82,1.797l0.74,0.318
		c2.514,1.079,3.934,2.178,3.934,4.65c0,2.665-2.093,4.124-4.904,4.124c-2.749,0-4.526-1.31-5.395-3.026L331.886,115.555z
		 M321.43,115.811c0.465,0.825,0.888,1.523,1.904,1.523c0.973,0,1.586-0.381,1.586-1.86V105.41h2.96v10.104
		c0,3.065-1.798,4.46-4.42,4.46c-2.37,0-3.742-1.227-4.44-2.703L321.43,115.811z"/>
</g>
<g>
	<title>Slice 1</title>
	<description>Created with Sketch (http://www.bohemiancoding.com/sketch)</description>
	<g id="Page_1">
		<g id="Layer_1">
			<path id="Shape" fill="#131313" d="M360.05,143.283h-2.334l2.428,2.634v1.254h-4.999v-1.468h2.426l-2.426-2.634v-1.256h4.905
				V143.283L360.05,143.283z M354.153,143.283h-2.334l2.427,2.634v1.254h-4.999v-1.468h2.426l-2.426-2.634v-1.256h4.906V143.283
				L354.153,143.283z M348.314,143.343h-2.518v2.299h2.518v1.529h-4.308v-5.357h4.308V143.343L348.314,143.343z"/>
			<path id="Shape_1_" fill="#1572B6" d="M340.574,178.319l-2.559-28.702h28.119l-2.562,28.697l-11.516,3.193L340.574,178.319z"/>
			<path id="Shape_2_" fill="#33A9DC" d="M352.075,179.066l9.304-2.579l2.189-24.523h-11.493V179.066z"/>
			<g id="Group" transform="translate(55.000000, 142.000000)">
				<path id="Shape_3_" fill="#FFFFFF" d="M297.075,20.363h4.658l0.322-3.605h-4.979v-3.52h0.012h8.815l-0.084,0.944l-0.865,9.7
					h-7.877V20.363z"/>
				<path id="Shape_4_" fill="#EBEBEB" d="M297.096,29.504l-0.015,0.005l-3.921-1.06l-0.251-2.807h-1.905h-1.628l0.493,5.526
					l7.211,2.002l0.017-0.004V29.504z"/>
				<path id="Shape_5_" fill="#FFFFFF" d="M301.434,23.733l-0.424,4.715l-3.926,1.06v3.663l7.217-2.001l0.053-0.595l0.613-6.842
					H301.434z"/>
				<path id="Shape_6_" fill="#EBEBEB" d="M297.087,13.238v2.186v1.325v0.009h-8.492h-0.011l-0.07-0.791l-0.16-1.784l-0.084-0.944
					H297.087z"/>
				<path id="Shape_7_" fill="#EBEBEB" d="M297.075,20.363v2.187v1.325v0.008h-3.859h-0.012l-0.07-0.79l-0.161-1.785l-0.084-0.944
					H297.075z"/>
			</g>
		</g>
	</g>
</g>
<g>
	<title>HTML5 Logo</title>
	<polygon fill="#E44D26" points="293.769,177.828 291.255,149.612 318.897,149.612 316.379,177.824 305.058,180.962 	"/>
	<polygon fill="#F16529" points="305.075,178.564 314.223,176.028 316.375,151.919 305.075,151.919 	"/>
	<polygon fill="#EBEBEB" points="305.075,162.384 300.496,162.384 300.179,158.841 305.075,158.841 305.075,155.379 
		305.063,155.379 296.398,155.379 296.481,156.308 297.33,165.844 305.075,165.844 	"/>
	<polygon fill="#EBEBEB" points="305.075,171.371 305.061,171.376 301.206,170.334 300.96,167.574 299.087,167.574 297.486,167.574 
		297.97,173.009 305.059,174.977 305.075,174.972 	"/>
	<path d="M293.825,141.944h1.759v1.737h1.609v-1.737h1.758v5.263h-1.758v-1.763h-1.609v1.763h-1.759V141.944L293.825,141.944z"/>
	<path d="M301.264,143.689h-1.548v-1.745h4.856v1.745h-1.549v3.518h-1.759V143.689L301.264,143.689z"/>
	<path d="M305.343,141.944h1.834l1.127,1.849l1.127-1.849h1.835v5.263h-1.752v-2.609l-1.21,1.871h-0.03l-1.211-1.871v2.609h-1.72
		V141.944z"/>
	<path d="M312.142,141.944h1.759v3.522h2.473v1.74h-4.232V141.944z"/>
	<polygon fill="#FFFFFF" points="305.063,162.384 305.063,165.844 309.325,165.844 308.923,170.333 305.063,171.374 
		305.063,174.975 312.158,173.009 312.21,172.424 313.024,163.314 313.107,162.384 312.175,162.384 	"/>
	<polygon fill="#FFFFFF" points="305.063,155.379 305.063,157.529 305.063,158.832 305.063,158.841 313.411,158.841 
		313.411,158.841 313.422,158.841 313.491,158.063 313.65,156.308 313.733,155.379 	"/>
</g>
<polygon id="polygon3349" fill="#333333" points="409.934,192.626 389.703,202.801 398.069,171.837 "/>
<polygon id="polygon3349_1_" fill="#333333" points="410.242,73.907 396.917,92.218 390.173,60.861 "/>
<polygon id="polygon3349_2_" fill="#333333" points="414.699,131.045 397.847,146.173 397.793,114.099 "/>
<circle fill="#00859E" stroke="#1A296F" stroke-width="0.4695" stroke-miterlimit="10" cx="449.663" cy="47.031" r="41.729"/>
<circle fill="#339933" stroke="#0D5400" stroke-width="0.4753" stroke-miterlimit="10" cx="463.054" cy="131.405" r="42.236"/>
<circle fill="#1A296F" stroke="#0D5400" stroke-width="0.5039" stroke-miterlimit="10" cx="451.817" cy="219.619" r="44.785"/>
<text transform="matrix(4.489659e-011 -1 1 4.489659e-011 392.7209 170.679)" fill="#E52D62" font-family="verdana" font-weight="bold" font-size="10">peut générer</text>
<text transform="matrix(1 0 0 1 438.9294 34.2717)"><tspan x="0" y="0" fill="#FFFFFF" font-family="verdana" font-weight="bold" font-size="7">Code </tspan><tspan x="-21.699" y="8.4" fill="#FFFFFF" font-family="verdana" font-weight="bold" font-size="7">HTML5/CSS3/JS</tspan><tspan x="-26.799" y="16.8" fill="#FFFFFF" font-family="verdana" font-weight="bold" font-size="7">pour un navigateur</tspan><tspan x="-5.571" y="25.2" fill="#FFFFFF" font-family="verdana" font-weight="bold" font-size="7">Internet</tspan></text>
<text transform="matrix(1 0 0 1 430.1794 116.9788)"><tspan x="0" y="0" fill="#FFFFFF" font-family="verdana" font-weight="bold" font-size="7">Code JavaScript</tspan><tspan x="5.277" y="8.4" fill="#FFFFFF" font-family="verdana" font-weight="bold" font-size="7">pour Node JS</tspan><tspan x="28.302" y="16.8" fill="#FFFFFF" font-family="verdana" font-weight="bold" font-size="7">&amp;</tspan><tspan x="-1.81" y="25.2" fill="#FFFFFF" font-family="verdana" font-weight="bold" font-size="7">Base de données</tspan><tspan x="2.406" y="33.6" fill="#FFFFFF" font-family="verdana" font-weight="bold" font-size="7">pour MongoDB</tspan></text>
<text transform="matrix(1 0 0 1 413.1697 214.7297)"><tspan x="0" y="0" fill="#FFFFFF" font-family="verdana" font-weight="bold" font-size="7">Application Hybride</tspan><tspan x="5.6" y="8.4" fill="#FFFFFF" font-family="verdana" font-weight="bold" font-size="7">pour un terminal</tspan><tspan x="25.377" y="16.8" fill="#FFFFFF" font-family="verdana" font-weight="bold" font-size="7">mobile</tspan></text>
</svg>
